<svg xmlns="http://www.w3.org/2000/svg" xmlns:xlink="http://www.w3.org/1999/xlink" width="191" height="97" viewBox="0 0 191 97">
  <defs>
    <clipPath id="clip-path">
      <rect id="Rectangle_78" data-name="Rectangle 78" width="191" height="97" transform="translate(5562 10587)" fill="red" opacity="0.748"/>
    </clipPath>
  </defs>
  <g id="Mask_Group_15" data-name="Mask Group 15" transform="translate(-5562 -10587)" clip-path="url(#clip-path)">
    <g id="agrosense" transform="translate(4501.119 10259.377)">
      <path id="Union_3" data-name="Union 3" d="M-14313.791-146.311l1.941-2.592a5.87,5.87,0,0,0,3.927,1.728c1.362,0,2.011-.637,2.011-1.4,0-2.284-7.21-1.975-7.21-6.521,0-2.387,2.278-4.259,5.512-4.259a6.4,6.4,0,0,1,4.754,1.728l-2.119,2.325a3.727,3.727,0,0,0-2.924-1.338c-1.115,0-1.742.576-1.742,1.3,0,2.324,7.188,1.975,7.188,6.562,0,2.159-1.942,4.258-5.915,4.258A7.94,7.94,0,0,1-14313.791-146.311Zm-55,0,1.94-2.592a5.864,5.864,0,0,0,3.929,1.728c1.359,0,2.008-.637,2.008-1.4,0-2.284-7.208-1.975-7.208-6.521,0-2.387,2.276-4.259,5.512-4.259a6.4,6.4,0,0,1,4.754,1.729l-2.119,2.324a3.735,3.735,0,0,0-2.926-1.338c-1.115,0-1.738.577-1.738,1.3,0,2.324,7.185,1.975,7.185,6.562,0,2.16-1.942,4.258-5.913,4.258A7.935,7.935,0,0,1-14368.8-146.311Zm-17.417-5.724c0-5.334,2.228-7.5,5.743-7.5,3.453,0,5.576,2.039,5.576,7.352,0,5.333-2.247,7.5-5.743,7.5C-14384.109-144.684-14386.213-146.722-14386.213-152.035Zm1.708-.144c0,4.51,1.56,6.013,3.973,6.013s3.931-1.4,3.931-5.869c0-4.51-1.56-6.014-3.992-6.014C-14382.967-158.049-14384.5-156.669-14384.5-152.179Zm-29.307.124c0-5.211,2.786-7.476,6.259-7.476a5.54,5.54,0,0,1,4.015,1.236l-1.081,1.256a4.2,4.2,0,0,0-3.036-.988c-2.12,0-4.452,1.112-4.452,5.828,0,4.345,1.56,6.075,4.409,6.075a5.06,5.06,0,0,0,2.56-.577v-5.519h1.665v6.239a6.946,6.946,0,0,1-4.577,1.3C-14411.816-144.684-14413.812-147.134-14413.812-152.056Zm63.47,7.33v-14.421h9.261v2.592h-5.869v3.21h5.044v2.592h-5.044v3.436h6.139v2.592Zm55.007,0v-14.42h9.261v2.592h-5.871v3.21h5.044v2.592h-5.044v3.435h6.139v2.592Zm-95.348-.163-2.641-4.613a2.4,2.4,0,0,0-2.268-1.38h-1.146v5.992h-1.662v-14.436h3.661c3.036,0,4.867,1.174,4.867,4.057a3.7,3.7,0,0,1-3.288,3.934v.082a4.125,4.125,0,0,1,1.77,1.853l2.683,4.51Zm-6.054-7.413h1.873c2.018,0,3.286-.782,3.286-2.781,0-2.018-1.186-2.78-3.39-2.78h-1.77Zm-21.673,7.413-1.353-4.2h-5.867l-1.35,4.2h-1.708l4.723-14.436h2.58l4.723,14.436Zm-5.159-10.564-1.581,4.9h4.908l-1.56-4.861c-.1-.411-.789-2.512-.852-2.78h-.083C-14422.778-157.946-14423.463-155.845-14423.568-155.454Zm98.912,10.358-3.436-6.09a36.359,36.359,0,0,1-1.8-3.749c.043,1.17-.14,2.262-.14,4.386v5.452h-3.256v-14.377l-5.248-27.295-2.82,4a1.429,1.429,0,0,1-1.978,0l-3.732-5.3-3.335,2.365a1.4,1.4,0,0,1-.784.086h-30.749c-.025,0-.047-.005-.068-.007a.991.991,0,0,1-.187.137,11.385,11.385,0,0,0-5.409,8.535v7.905h13.316a.672.672,0,0,1,.676.666v.15a.672.672,0,0,1-.676.666h-53.7a.671.671,0,0,1-.672-.666v-.15a.671.671,0,0,1,.672-.666h12.465l-.01-7.91c0-.008,0-.016,0-.025a19.779,19.779,0,0,0-3.418-9.339l-.188-.3-.34.095a18.924,18.924,0,0,1-4.99.765,9.108,9.108,0,0,1-5.549-1.654c-4.523-3.282-5.1-11.04-5.1-17.432v-1.009l.941.389c1.406.583,3.087,1.082,4.858,1.61,4.932,1.466,10.516,3.129,12.341,7.311,1.05,2.41.743,5.31-.942,8.864l-.111.233.138.218a28.709,28.709,0,0,1,2.247,4.205l.529,1.253.363-1.311a12.49,12.49,0,0,1,7.791-8.595c.049-.02.144-.1.192-.079a.467.467,0,0,1,.171.14.912.912,0,0,1-.365,1.4c-5.822,2.617-7.095,7.192-7.184,13.228v.018l0,7.917h25.177l-.008-7.722h-.016l-.018-.182a13,13,0,0,0-1.646-5.173l-.179-.277-.324.07a13.507,13.507,0,0,1-2.806.335,5.893,5.893,0,0,1-3.725-1.107c-2.481-1.9-2.821-6.086-2.821-10.324v-1.01l.939.389a29.472,29.472,0,0,0,2.879.949c2.786.82,5.942,1.749,7.128,4.22.69,1.442.637,3.2-.169,5.362l-.085.231.144.2a9.354,9.354,0,0,1,.983,1.88l.405,1,.464-.975a12.2,12.2,0,0,1,5.58-5.785c.051-.022.153-.112.2-.09a.318.318,0,0,1,.052.031.54.54,0,0,1,.057-.006h26a1.3,1.3,0,0,1,.188-.014h4.109l4.1-2.9a1.4,1.4,0,0,1,.961-.218,1.131,1.131,0,0,1,.809.422l3.431,4.867,3.432-4.867a1.266,1.266,0,0,1,1.168-.422.979.979,0,0,1,.912.667l5.587,29.053,12.114-57.269a1.047,1.047,0,0,1,1.089-.667,1.031,1.031,0,0,1,1.1.678l6.265,32.582,5.012-4.741a1.424,1.424,0,0,1,1.5-.182l6.348,3h10.978c.607,0,1.1.35,1.1.783s-.5.783-1.1.783h-11.309a1.454,1.454,0,0,1-.615-.132l-5.761-2.722-6,5.674a1.39,1.39,0,0,1-1.162.289.946.946,0,0,1-.814-.654l-5.588-29.052-11.113,52.549h0l3.192,5.678a39.694,39.694,0,0,1,2.209,4.423h.09c-.179-2.016-.179-4.011-.179-5.534v-4.567h3.236V-145.1Zm-74.479-46.679c.134,4.162.834,6.511,2.27,7.614a4.6,4.6,0,0,0,2.895.83,12.282,12.282,0,0,0,2.61-.327l.252-.057.089-.239a5.611,5.611,0,0,0,.224-4.343c-.926-1.929-3.649-2.73-6.278-3.5-.507-.149-.979-.288-1.441-.435l-.639-.2Zm-34.608-11.4c.093,4.956.664,11.872,4.53,14.681a7.926,7.926,0,0,0,4.761,1.39,16.426,16.426,0,0,0,3.842-.514l.685-.167-.413-.565a64.283,64.283,0,0,0-8.929-9.535.675.675,0,0,1-.069-.948l.012-.013a.688.688,0,0,1,.964-.046,64.65,64.65,0,0,1,8.946,9.462l.514.69.313-.8c1.015-2.594,1.133-4.711.365-6.47-1.574-3.609-6.835-5.174-11.477-6.555-1.214-.361-2.352-.7-3.414-1.064l-.643-.22Z" transform="translate(15516.999 569.001)" fill="#fff" stroke="rgba(0,0,0,0)" stroke-width="1"/>
    </g>
  </g>
</svg>
