<svg xmlns="http://www.w3.org/2000/svg" xmlns:xlink="http://www.w3.org/1999/xlink" width="191" height="97" viewBox="0 0 191 97">
  <defs>
    <clipPath id="clip-path">
      <rect id="Rectangle_75" data-name="Rectangle 75" width="191" height="97" transform="translate(4705 10587)" fill="red" opacity="0.748"/>
    </clipPath>
  </defs>
  <g id="Mask_Group_12" data-name="Mask Group 12" transform="translate(-4705 -10587)" clip-path="url(#clip-path)">
    <g id="Carsense" transform="translate(4419.012 10223.223)">
      <g id="Group_2687" data-name="Group 2687" transform="translate(368.804 388.87)">
        <path id="Path_288" data-name="Path 288" d="M472.147,420.784h16.972c.283,0,.639.061.839-.082l3.217-2.3,3.6,5.159a1.368,1.368,0,0,0,1.906,0l2.719-3.9,5.926,31.136a1.176,1.176,0,0,0,2.108.009l11.681-55.788,5.387,28.3a.913.913,0,0,0,.786.637,1.329,1.329,0,0,0,1.121-.282l5.786-5.527,5.554,2.652a1.382,1.382,0,0,0,.592.128h11.267c.589,0,1.065-.341,1.065-.763s-.477-.763-1.065-.763H540.664l-6.123-2.925a1.359,1.359,0,0,0-1.445.178l-4.833,4.618-6.043-31.739a.994.994,0,0,0-1.055-.66,1.014,1.014,0,0,0-1.052.65l-11.681,55.788-5.387-28.3a.945.945,0,0,0-.88-.65,1.213,1.213,0,0,0-1.128.411l-3.309,4.74-3.308-4.74a1.093,1.093,0,0,0-.782-.411,1.329,1.329,0,0,0-.924.213l-3.949,2.829h-16.6c-.589,0-1.066.341-1.066.763S471.558,420.784,472.147,420.784Z" transform="translate(-471.094 -388.87)" fill="#fff"/>
      </g>
      <g id="Group_2688" data-name="Group 2688" transform="translate(370.302 446.167)">
        <path id="Path_289" data-name="Path 289" d="M482.84,558.487c0-2.224-6.952-1.924-6.952-6.353,0-2.325,2.2-4.148,5.316-4.148a6.145,6.145,0,0,1,4.584,1.684l-2.045,2.265a3.589,3.589,0,0,0-2.82-1.3c-1.076,0-1.678.561-1.678,1.262,0,2.265,6.93,1.924,6.93,6.393,0,2.1-1.872,4.148-5.7,4.148a7.612,7.612,0,0,1-5.23-1.743l1.872-2.525a5.633,5.633,0,0,0,3.788,1.683C482.216,559.849,482.84,559.229,482.84,558.487Z" transform="translate(-475.243 -547.825)" fill="#fff"/>
        <path id="Path_290" data-name="Path 290" d="M524.528,562.589V548.541h8.931v2.525H527.8v3.126h4.864v2.525H527.8v3.347h5.919v2.525Z" transform="translate(-506.731 -548.18)" fill="#fff"/>
        <path id="Path_291" data-name="Path 291" d="M573.291,551.407c.151,1.4-.091,2.446-.091,4.871v5.31h-3.142V547.541H574l3.078,5.531a38.5,38.5,0,0,1,2.131,4.309h.086c-.172-1.964-.172-3.908-.172-5.391v-4.449h3.121v14.048h-3.852l-3.315-5.932a38.657,38.657,0,0,1-2-4.288Z" transform="translate(-535.82 -547.541)" fill="#fff"/>
        <path id="Path_292" data-name="Path 292" d="M629.74,558.487c0-2.224-6.952-1.924-6.952-6.353,0-2.325,2.2-4.148,5.316-4.148a6.145,6.145,0,0,1,4.584,1.684l-2.045,2.265a3.587,3.587,0,0,0-2.819-1.3c-1.076,0-1.679.561-1.679,1.262,0,2.265,6.93,1.924,6.93,6.393,0,2.1-1.873,4.148-5.7,4.148a7.613,7.613,0,0,1-5.23-1.743l1.873-2.525a5.633,5.633,0,0,0,3.788,1.683C629.116,559.849,629.74,559.229,629.74,558.487Z" transform="translate(-569.096 -547.825)" fill="#fff"/>
        <path id="Path_293" data-name="Path 293" d="M671.428,562.589V548.541h8.932v2.525H674.7v3.126h4.864v2.525H674.7v3.347h5.919v2.525Z" transform="translate(-600.584 -548.18)" fill="#fff"/>
      </g>
      <path id="Path_294" data-name="Path 294" d="M328.4,547.275a5.525,5.525,0,0,1,3.761,1.173l-1.012,1.233a4.206,4.206,0,0,0-2.912-.95c-2.467,0-3.984,1.8-3.984,5.8,0,3.842,1.436,5.844,4.146,5.844a3.8,3.8,0,0,0,2.77-.869l.89,1.152a5.506,5.506,0,0,1-3.883,1.193c-3.9,0-5.581-2.811-5.581-7.179C322.6,550.025,324.621,547.275,328.4,547.275Z" transform="translate(-7.418 -101.204)" fill="#fff"/>
      <path id="Path_295" data-name="Path 295" d="M380.593,547.835l4.59,14.175h-1.7l-1.315-4.125h-5.7l-1.314,4.125h-1.658l4.59-14.175Zm-3.66,8.614H381.7l-1.516-4.772c-.1-.4-.769-2.467-.829-2.73h-.081c-.04.243-.707,2.3-.809,2.69Z" transform="translate(-39.935 -101.561)" fill="#fff"/>
      <path id="Path_296" data-name="Path 296" d="M432.133,547.835c2.952,0,4.732,1.153,4.732,3.984a3.616,3.616,0,0,1-3.2,3.862v.081a4.029,4.029,0,0,1,1.719,1.82L438,562.01h-1.921l-2.568-4.53a2.327,2.327,0,0,0-2.2-1.354h-1.112v5.884h-1.618V547.835Zm-1.941,6.9h1.82c1.962,0,3.2-.768,3.2-2.729,0-1.982-1.153-2.73-3.3-2.73h-1.719Z" transform="translate(-75.125 -101.561)" fill="#fff"/>
      <g id="car_mechanic" data-name="car mechanic" transform="translate(310.989 389.344)">
        <g id="_Grupo_" data-name="&lt;Grupo&gt;">
          <g id="Group_2689" data-name="Group 2689">
            <path id="Path_297" data-name="Path 297" d="M322.727,435.574h-6.411a.7.7,0,0,1-.7-.7V417.621a12.224,12.224,0,0,1,.8-4.364l.77-2.021h-4.335a1.859,1.859,0,0,1-1.81-2.285l.876-3.731a3,3,0,0,1,2.935-2.326h5.219l4.244-8.489a7.6,7.6,0,0,1,6.831-4.222h32.741a7.6,7.6,0,0,1,6.831,4.222l4.244,8.489h5.219a3,3,0,0,1,2.935,2.326l.876,3.731a1.86,1.86,0,0,1-1.811,2.285h-4.335l.77,2.021a.7.7,0,1,1-1.316.5l-1.134-2.976a.7.7,0,0,1,.658-.955h5.357a.451.451,0,0,0,.439-.555l-.876-3.731a1.6,1.6,0,0,0-1.564-1.24h-5.654a.7.7,0,0,1-.63-.389l-4.439-8.878a6.2,6.2,0,0,0-5.572-3.443H331.144a6.194,6.194,0,0,0-5.571,3.443l-4.439,8.878a.7.7,0,0,1-.63.389H314.85a1.6,1.6,0,0,0-1.564,1.24l-.876,3.731a.452.452,0,0,0,.439.555h5.357a.7.7,0,0,1,.658.955l-1.134,2.976a10.81,10.81,0,0,0-.711,3.863v16.545h5v-4.712a.7.7,0,0,1,1.408,0v5.417A.7.7,0,0,1,322.727,435.574Z" transform="translate(-310.989 -390.183)" fill="#fff"/>
          </g>
          <g id="Group_2692" data-name="Group 2692" transform="translate(11.556 26.787)">
            <g id="Group_2690" data-name="Group 2690">
              <path id="Path_298" data-name="Path 298" d="M353.305,469.029h-9.612a.7.7,0,1,1,0-1.408h8.473l-1.119-2.238a.7.7,0,0,1,1.26-.63l1.628,3.256a.7.7,0,0,1-.63,1.019Z" transform="translate(-342.989 -464.364)" fill="#fff"/>
            </g>
            <g id="Group_2691" data-name="Group 2691" transform="translate(38.921 0)">
              <path id="Path_299" data-name="Path 299" d="M461.087,469.029h-9.613a.7.7,0,0,1-.63-1.019l1.629-3.256a.7.7,0,0,1,1.26.63l-1.119,2.237h8.473a.7.7,0,0,1,0,1.408Z" transform="translate(-450.771 -464.364)" fill="#fff"/>
            </g>
          </g>
          <g id="Group_2693" data-name="Group 2693" transform="translate(26.578 38.133)">
            <path id="Path_300" data-name="Path 300" d="M403.782,497.191H385.293a.7.7,0,0,1,0-1.408h18.489a.7.7,0,1,1,0,1.408Z" transform="translate(-384.589 -495.783)" fill="#fff"/>
          </g>
          <g id="Group_2694" data-name="Group 2694" transform="translate(16.178 17.333)">
            <path id="Path_301" data-name="Path 301" d="M395.782,439.591H356.493a.7.7,0,1,1,0-1.408h39.288a.7.7,0,1,1,0,1.408Z" transform="translate(-355.789 -438.183)" fill="#fff"/>
          </g>
        </g>
      </g>
    </g>
  </g>
</svg>
