<svg xmlns="http://www.w3.org/2000/svg" xmlns:xlink="http://www.w3.org/1999/xlink" width="191" height="97" viewBox="0 0 191 97">
  <defs>
    <clipPath id="clip-path">
      <rect id="Rectangle_79" data-name="Rectangle 79" width="191" height="97" transform="translate(4419 10312)" fill="red" opacity="0.748"/>
    </clipPath>
  </defs>
  <g id="Mask_Group_10" data-name="Mask Group 10" transform="translate(-4419 -10312)" clip-path="url(#clip-path)">
    <g id="Group_2815" data-name="Group 2815" transform="translate(3804.171 9989.057)">
      <g id="Group_2815-2" data-name="Group 2815" transform="translate(649.638 329.675)">
        <path id="Path_427" data-name="Path 427" d="M767.382,428.275a.7.7,0,0,1-.655-.448l-1.193-3.079-17.119-8.209-17.141,8.21-1.193,3.078a.7.7,0,0,1-1.309-.508l1.272-3.282,15.6-40.252-.479-.265a6.7,6.7,0,1,1,6.474,0l-.479.265,16.874,43.533a.7.7,0,0,1-.654.955Zm-35.367-5.438,14.777-7.077-10.147-4.866Zm18.024-7.077,14.754,7.075-4.623-11.927Zm-12.351-5.923,10.727,5.144,10.737-5.143-10.777-7.431Zm.038-1.736,9.414-6.545-5.427-3.742Zm11.88-6.549,9.467,6.528-4-10.328Zm-7.371-5.083,6.136,4.231,6.176-4.294-4.722-12.184-.493.069a6.573,6.573,0,0,1-1.858,0l-.493-.069Zm6.169-24.109a5.3,5.3,0,1,0,5.3,5.3A5.3,5.3,0,0,0,748.4,372.359Z" transform="translate(-725.613 -360.79)" fill="#fff"/>
        <path id="Path_428" data-name="Path 428" d="M869.979,346.541a19.953,19.953,0,0,1-6.257,14.573,1.33,1.33,0,1,0,1.834,1.926,22.759,22.759,0,0,0,0-33,1.33,1.33,0,1,0-1.834,1.926A19.953,19.953,0,0,1,869.979,346.541Z" transform="translate(-827.055 -329.675)" fill="#fff"/>
        <path id="Path_429" data-name="Path 429" d="M866.562,364.7a.7.7,0,0,1-.509-.218.7.7,0,0,1,.025-.992,20.728,20.728,0,0,0,0-30.056.7.7,0,1,1,.968-1.017,22.131,22.131,0,0,1,0,32.089A.7.7,0,0,1,866.562,364.7Z" transform="translate(-828.979 -331.596)" fill="#fff"/>
        <path id="Path_430" data-name="Path 430" d="M844.611,370.808a1.33,1.33,0,1,0,1.813,1.946,16.123,16.123,0,0,0,0-23.6,1.33,1.33,0,1,0-1.813,1.946,13.464,13.464,0,0,1,0,19.709Z" transform="translate(-812.642 -344.087)" fill="#fff"/>
        <path id="Path_431" data-name="Path 431" d="M847.439,374.4a.7.7,0,0,1-.479-1.215,14.092,14.092,0,0,0,0-20.628.7.7,0,1,1,.957-1.027,15.5,15.5,0,0,1,0,22.682A.7.7,0,0,1,847.439,374.4Z" transform="translate(-814.564 -346.009)" fill="#fff"/>
        <path id="Path_432" data-name="Path 432" d="M723.171,363.04a1.33,1.33,0,1,0,1.835-1.926,20.1,20.1,0,0,1,0-29.147,1.33,1.33,0,0,0-1.835-1.926,22.76,22.76,0,0,0,0,33Z" transform="translate(-716.089 -329.675)" fill="#fff"/>
        <path id="Path_433" data-name="Path 433" d="M726.011,364.7a.7.7,0,0,1-.484-.194,22.132,22.132,0,0,1,0-32.089.7.7,0,1,1,.968,1.017,20.727,20.727,0,0,0,0,30.056.7.7,0,0,1,.024.992A.693.693,0,0,1,726.011,364.7Z" transform="translate(-718.012 -331.598)" fill="#fff"/>
        <path id="Path_434" data-name="Path 434" d="M748.292,372.754a1.33,1.33,0,1,0,1.813-1.946,13.464,13.464,0,0,1,0-19.709,1.33,1.33,0,1,0-1.813-1.946,16.123,16.123,0,0,0,0,23.6Z" transform="translate(-736.49 -344.088)" fill="#fff"/>
        <path id="Path_435" data-name="Path 435" d="M751.12,374.4a.7.7,0,0,1-.478-.188,15.5,15.5,0,0,1,0-22.682.7.7,0,1,1,.957,1.027,14.092,14.092,0,0,0,0,20.628.7.7,0,0,1,.035.991A.7.7,0,0,1,751.12,374.4Z" transform="translate(-738.412 -346.009)" fill="#fff"/>
      </g>
      <path id="Path_436" data-name="Path 436" d="M923.992,430.194h29.02c.289,0,.654.063.858-.084l3.29-2.357,3.682,5.277a1.4,1.4,0,0,0,1.95,0l2.781-3.984,6.062,31.849a1.2,1.2,0,0,0,2.156.009l11.949-57.067,5.511,28.949a.935.935,0,0,0,.8.651,1.358,1.358,0,0,0,1.147-.289l5.919-5.654,5.681,2.713a1.414,1.414,0,0,0,.605.131h7.832c.6,0,1.09-.349,1.09-.78s-.488-.781-1.09-.781h-7.5l-6.264-2.992a1.389,1.389,0,0,0-1.478.181l-4.944,4.724-6.182-32.467a1.017,1.017,0,0,0-1.079-.675,1.038,1.038,0,0,0-1.076.665l-11.949,57.067-5.511-28.95a.968.968,0,0,0-.9-.665,1.243,1.243,0,0,0-1.154.421l-3.384,4.849-3.384-4.849a1.119,1.119,0,0,0-.8-.421,1.359,1.359,0,0,0-.945.218l-4.04,2.894H923.992c-.6,0-.739.247-.739.679A.645.645,0,0,0,923.992,430.194Z" transform="translate(-222.599 -51.159)" fill="#fff"/>
      <path id="Path_437" data-name="Path 437" d="M902.333,524h-46.2c-.6,0-.741.258-.741.708,0,.408.137.769.741.769h46.2" transform="translate(-171.452 -146.471)" fill="#fff"/>
      <path id="Path_438" data-name="Path 438" d="M1005.718,646.964c0-2.275-7.111-1.968-7.111-6.5,0-2.378,2.245-4.243,5.438-4.243a6.286,6.286,0,0,1,4.689,1.722l-2.091,2.317a3.669,3.669,0,0,0-2.884-1.332c-1.1,0-1.717.574-1.717,1.291,0,2.316,7.089,1.968,7.089,6.539,0,2.152-1.916,4.243-5.835,4.243a7.787,7.787,0,0,1-5.349-1.783l1.915-2.583a5.762,5.762,0,0,0,3.875,1.722C1005.08,648.357,1005.718,647.722,1005.718,646.964Z" transform="translate(-278.9 -231.058)" fill="#fff"/>
      <path id="Path_439" data-name="Path 439" d="M1059.874,651.425v-14.37h9.136v2.583h-5.79v3.2h4.976v2.583h-4.976v3.424h6.054v2.583Z" transform="translate(-325.577 -231.686)" fill="#fff"/>
      <path id="Path_440" data-name="Path 440" d="M1119.477,639.51c.154,1.435-.093,2.5-.093,4.983v5.432h-3.214v-14.37h4.029l3.148,5.658a39.38,39.38,0,0,1,2.18,4.407h.088c-.176-2.009-.176-4-.176-5.514v-4.551h3.192v14.37h-3.941l-3.39-6.068a39.509,39.509,0,0,1-2.048-4.387Z" transform="translate(-368.009 -230.555)" fill="#fff"/>
      <path id="Path_441" data-name="Path 441" d="M1193.069,646.964c0-2.275-7.111-1.968-7.111-6.5,0-2.378,2.246-4.243,5.438-4.243a6.286,6.286,0,0,1,4.689,1.722l-2.091,2.317a3.669,3.669,0,0,0-2.884-1.332c-1.1,0-1.717.574-1.717,1.291,0,2.316,7.089,1.968,7.089,6.539,0,2.152-1.915,4.243-5.834,4.243a7.788,7.788,0,0,1-5.35-1.783l1.915-2.583a5.763,5.763,0,0,0,3.875,1.722C1192.43,648.357,1193.069,647.722,1193.069,646.964Z" transform="translate(-420.114 -231.058)" fill="#fff"/>
      <path id="Path_442" data-name="Path 442" d="M1247.225,651.425v-14.37h9.136v2.583h-5.79v3.2h4.975v2.583h-4.975v3.424h6.054v2.583Z" transform="translate(-466.792 -231.686)" fill="#fff"/>
      <g id="Group_2817" data-name="Group 2817" transform="translate(627.928 405.043)">
        <path id="Path_461" data-name="Path 461" d="M633.812,635.733a5.6,5.6,0,0,1,3.813,1.189l-1.025,1.251a4.259,4.259,0,0,0-2.952-.964c-2.5,0-4.038,1.825-4.038,5.883,0,3.9,1.455,5.925,4.2,5.925a3.852,3.852,0,0,0,2.808-.882l.9,1.168a5.581,5.581,0,0,1-3.936,1.21c-3.956,0-5.658-2.849-5.658-7.277C627.928,638.521,629.978,635.733,633.812,635.733Z" transform="translate(-627.928 -635.733)" fill="#fff"/>
        <path id="Path_462" data-name="Path 462" d="M679.544,650.935v-14.37h7.626v1.456h-5.986v4.9h5.268v1.456h-5.268v5.1h6.273v1.456Z" transform="translate(-666.833 -636.36)" fill="#fff"/>
        <path id="Path_463" data-name="Path 463" d="M725.056,636.565V649.48h6.17v1.456h-7.81v-14.37Z" transform="translate(-699.902 -636.36)" fill="#fff"/>
        <path id="Path_464" data-name="Path 464" d="M765.931,636.565V649.48h6.17v1.456h-7.81v-14.37Z" transform="translate(-730.711 -636.36)" fill="#fff"/>
        <path id="Path_465" data-name="Path 465" d="M811.155,646.138v-9.573h1.64v9.368c0,3.465-2.009,5.207-5.228,5.207-3.239,0-4.981-1.865-4.981-4.961v-9.614h1.64v9.368c0,2.583,1.373,3.731,3.526,3.731C809.843,649.664,811.155,648.7,811.155,646.138Z" transform="translate(-759.576 -636.36)" fill="#fff"/>
        <path id="Path_466" data-name="Path 466" d="M901.148,636.565l4.653,14.37h-1.722l-1.332-4.182h-5.781l-1.333,4.182h-1.681l4.653-14.37Zm-3.71,8.733h4.838l-1.537-4.838c-.1-.41-.779-2.5-.841-2.767h-.082c-.041.246-.718,2.337-.82,2.726Z" transform="translate(-828.443 -636.36)" fill="#fff"/>
        <path id="Path_467" data-name="Path 467" d="M954.171,636.565c2.993,0,4.8,1.169,4.8,4.039a3.666,3.666,0,0,1-3.239,3.915v.082a4.092,4.092,0,0,1,1.742,1.845l2.645,4.489h-1.948l-2.6-4.592a2.359,2.359,0,0,0-2.235-1.373H952.2v5.965h-1.64v-14.37Zm-1.968,6.99h1.845c1.988,0,3.239-.779,3.239-2.767,0-2.009-1.168-2.767-3.341-2.767H952.2Z" transform="translate(-871.112 -636.36)" fill="#fff"/>
        <path id="Path_468" data-name="Path 468" d="M857.431,636.565V649.48h6.17v1.456h-7.81v-14.37Z" transform="translate(-799.678 -636.36)" fill="#fff"/>
      </g>
      <path id="Path_469" data-name="Path 469" d="M745,524" transform="translate(-88.242 -146.471)" fill="#fff"/>
      <path id="Path_470" data-name="Path 470" d="M661.5,524l-31.549.027c-.6,0-.631.34-.631.75,0,.371.137.7.741.7H661.5" transform="translate(-1.051 -146.471)" fill="#fff"/>
    </g>
  </g>
</svg>
