<svg xmlns="http://www.w3.org/2000/svg" width="163.728" height="90.664" viewBox="0 0 163.728 90.664">
  <g id="Cellularsense" transform="translate(-626.745 -283.296)">
    <path id="Path_130" data-name="Path 130" d="M632.614,592.354a5.589,5.589,0,0,1,3.8,1.186l-1.023,1.247a4.251,4.251,0,0,0-2.945-.961c-2.495,0-4.028,1.82-4.028,5.869,0,3.885,1.452,5.91,4.192,5.91a3.842,3.842,0,0,0,2.8-.879l.9,1.165a5.567,5.567,0,0,1-3.927,1.207c-3.946,0-5.643-2.842-5.643-7.259C626.745,595.135,628.79,592.354,632.614,592.354Z" transform="translate(0 -233.139)" fill="#fff"/>
    <path id="Path_131" data-name="Path 131" d="M678.36,607.521V593.186h7.607v1.452H680v4.887h5.255v1.452H680v5.092h6.258v1.452Z" transform="translate(-38.936 -233.766)" fill="#fff"/>
    <path id="Path_132" data-name="Path 132" d="M723.868,593.186v12.883h6.155v1.452h-7.791V593.186Z" transform="translate(-72.031 -233.766)" fill="#fff"/>
    <path id="Path_133" data-name="Path 133" d="M764.743,593.186v12.883H770.9v1.452h-7.791V593.186Z" transform="translate(-102.865 -233.766)" fill="#fff"/>
    <path id="Path_134" data-name="Path 134" d="M809.95,602.736v-9.55h1.636v9.345c0,3.456-2,5.194-5.215,5.194-3.231,0-4.969-1.861-4.969-4.949v-9.591h1.636v9.345c0,2.577,1.37,3.722,3.517,3.722C808.641,606.253,809.95,605.292,809.95,602.736Z" transform="translate(-131.753 -233.766)" fill="#fff"/>
    <path id="Path_135" data-name="Path 135" d="M899.947,593.186l4.642,14.335h-1.718l-1.329-4.172h-5.767l-1.329,4.172h-1.677l4.642-14.335Zm-3.7,8.711h4.826l-1.533-4.826c-.1-.409-.777-2.495-.839-2.761h-.082c-.041.245-.715,2.331-.818,2.72Z" transform="translate(-200.675 -233.766)" fill="#fff"/>
    <path id="Path_136" data-name="Path 136" d="M952.978,593.186c2.986,0,4.785,1.166,4.785,4.029a3.657,3.657,0,0,1-3.231,3.906v.082a4.081,4.081,0,0,1,1.738,1.841l2.638,4.478h-1.943l-2.6-4.581a2.354,2.354,0,0,0-2.229-1.37h-1.124v5.951h-1.636V593.186Zm-1.963,6.973h1.84c1.983,0,3.231-.777,3.231-2.761,0-2-1.166-2.761-3.333-2.761h-1.738Z" transform="translate(-243.379 -233.766)" fill="#fff"/>
    <g id="Group_2657" data-name="Group 2657" transform="translate(628.587 283.296)">
      <path id="Path_137" data-name="Path 137" d="M685.443,381.755a.7.7,0,0,1-.653-.447l-1.19-3.071-17.077-8.189-17.1,8.19-1.19,3.07a.7.7,0,1,1-1.306-.506l1.269-3.274,15.564-40.153-.478-.265a6.684,6.684,0,1,1,6.458,0l-.478.265L686.095,380.8a.7.7,0,0,1-.652.953Zm-35.28-5.424,14.74-7.06-10.122-4.854Zm17.98-7.059,14.718,7.058-4.612-11.9Zm-12.321-5.908,10.7,5.132,10.71-5.13-10.75-7.413Zm.038-1.732,9.391-6.529-5.413-3.733Zm11.851-6.533,9.444,6.512-3.994-10.3Zm-7.352-5.07,6.121,4.221,6.161-4.283-4.711-12.154-.491.068a6.529,6.529,0,0,1-1.853,0l-.491-.068Zm6.154-24.05a5.284,5.284,0,1,0,5.284,5.284A5.29,5.29,0,0,0,666.512,325.977Z" transform="translate(-643.776 -314.436)" fill="#fff"/>
      <path id="Path_138" data-name="Path 138" d="M788.118,300.12a19.9,19.9,0,0,1-6.242,14.537,1.326,1.326,0,1,0,1.83,1.921,22.7,22.7,0,0,0,0-32.917,1.326,1.326,0,1,0-1.83,1.921A19.9,19.9,0,0,1,788.118,300.12Z" transform="translate(-745.3 -283.296)" fill="#fff"/>
      <path id="Path_139" data-name="Path 139" d="M784.717,318.241a.694.694,0,0,1-.508-.217.7.7,0,0,1,.025-.99,20.676,20.676,0,0,0,0-29.981.7.7,0,1,1,.965-1.014,22.077,22.077,0,0,1,0,32.01A.7.7,0,0,1,784.717,318.241Z" transform="translate(-747.225 -285.219)" fill="#fff"/>
      <path id="Path_140" data-name="Path 140" d="M762.766,324.374a1.326,1.326,0,1,0,1.808,1.941,16.083,16.083,0,0,0,0-23.543,1.326,1.326,0,0,0-1.808,1.941,13.43,13.43,0,0,1,0,19.66Z" transform="translate(-730.876 -297.72)" fill="#fff"/>
      <path id="Path_141" data-name="Path 141" d="M765.594,327.969a.7.7,0,0,1-.478-1.212,14.057,14.057,0,0,0,0-20.577.7.7,0,1,1,.954-1.024,15.456,15.456,0,0,1,0,22.626A.7.7,0,0,1,765.594,327.969Z" transform="translate(-732.8 -299.643)" fill="#fff"/>
      <path id="Path_142" data-name="Path 142" d="M641.31,316.579a1.327,1.327,0,0,0,1.83-1.921,20.05,20.05,0,0,1,0-29.075,1.327,1.327,0,0,0-1.83-1.921,22.7,22.7,0,0,0,0,32.917Z" transform="translate(-634.245 -283.296)" fill="#fff"/>
      <path id="Path_143" data-name="Path 143" d="M644.149,318.243a.694.694,0,0,1-.482-.193,22.077,22.077,0,0,1,0-32.01.7.7,0,1,1,.965,1.014,20.676,20.676,0,0,0,0,29.981.7.7,0,0,1,.024.99A.692.692,0,0,1,644.149,318.243Z" transform="translate(-636.169 -285.22)" fill="#fff"/>
      <path id="Path_144" data-name="Path 144" d="M666.435,326.316a1.326,1.326,0,0,0,1.808-1.941,13.43,13.43,0,0,1,0-19.66,1.326,1.326,0,0,0-1.808-1.941,16.083,16.083,0,0,0,0,23.543Z" transform="translate(-654.662 -297.72)" fill="#fff"/>
      <path id="Path_145" data-name="Path 145" d="M669.262,327.969a.7.7,0,0,1-.477-.188,15.457,15.457,0,0,1,0-22.626.7.7,0,1,1,.954,1.024,14.057,14.057,0,0,0,0,20.577.7.7,0,0,1,.035.989A.693.693,0,0,1,669.262,327.969Z" transform="translate(-656.586 -299.643)" fill="#fff"/>
    </g>
    <g id="Group_2658" data-name="Group 2658" transform="translate(662.643 300.583)">
      <path id="Path_146" data-name="Path 146" d="M773.586,386.234h65.957c.289,0,.652.063.856-.083l3.282-2.352,3.673,5.264a1.4,1.4,0,0,0,1.945,0l2.775-3.975,6.047,31.771a1.2,1.2,0,0,0,2.151.009l11.919-56.927,5.5,28.878a.932.932,0,0,0,.8.65,1.356,1.356,0,0,0,1.144-.288l5.9-5.64,5.667,2.706a1.413,1.413,0,0,0,.6.13h7.812c.6,0,1.087-.348,1.087-.778s-.486-.779-1.087-.779h-7.484l-6.248-2.984a1.386,1.386,0,0,0-1.474.181l-4.932,4.712-6.166-32.387a1.014,1.014,0,0,0-1.076-.674,1.035,1.035,0,0,0-1.074.663l-11.92,56.926-5.5-28.879a.965.965,0,0,0-.9-.663,1.239,1.239,0,0,0-1.151.42l-3.376,4.837-3.376-4.837a1.115,1.115,0,0,0-.8-.42,1.356,1.356,0,0,0-.943.217l-4.03,2.887H773.6c-.6,0-.719.348-.719.779S772.986,386.234,773.586,386.234Z" transform="translate(-772.88 -353.67)" fill="#fff"/>
    </g>
    <path id="Path_147" data-name="Path 147" d="M1005.855,603.058c0-2.27-7.093-1.963-7.093-6.482,0-2.372,2.24-4.233,5.424-4.233a6.271,6.271,0,0,1,4.678,1.718l-2.086,2.311a3.662,3.662,0,0,0-2.877-1.329c-1.1,0-1.713.573-1.713,1.288,0,2.311,7.072,1.963,7.072,6.523,0,2.147-1.911,4.233-5.82,4.233a7.768,7.768,0,0,1-5.336-1.779l1.911-2.577a5.745,5.745,0,0,0,3.865,1.718C1005.218,604.449,1005.855,603.815,1005.855,603.058Z" transform="translate(-280.134 -233.13)" fill="#fff"/>
    <path id="Path_148" data-name="Path 148" d="M1060.03,607.511V593.176h9.114v2.577h-5.776v3.19h4.963v2.577h-4.963v3.415h6.04v2.576Z" transform="translate(-326.849 -233.759)" fill="#fff"/>
    <path id="Path_149" data-name="Path 149" d="M1119.625,595.621c.154,1.432-.093,2.5-.093,4.971v5.419h-3.206V591.676h4.019l3.141,5.644a39.309,39.309,0,0,1,2.174,4.4h.088c-.176-2-.176-3.987-.176-5.5v-4.539h3.184v14.335h-3.931l-3.382-6.053a39.4,39.4,0,0,1-2.043-4.376Z" transform="translate(-369.316 -232.627)" fill="#fff"/>
    <path id="Path_150" data-name="Path 150" d="M1193.206,603.058c0-2.27-7.094-1.963-7.094-6.482,0-2.372,2.24-4.233,5.424-4.233a6.27,6.27,0,0,1,4.678,1.718l-2.086,2.311a3.661,3.661,0,0,0-2.877-1.329c-1.1,0-1.713.573-1.713,1.288,0,2.311,7.072,1.963,7.072,6.523,0,2.147-1.911,4.233-5.82,4.233a7.769,7.769,0,0,1-5.336-1.779l1.911-2.577a5.747,5.747,0,0,0,3.865,1.718C1192.569,604.449,1193.206,603.815,1193.206,603.058Z" transform="translate(-421.462 -233.13)" fill="#fff"/>
    <path id="Path_151" data-name="Path 151" d="M1247.381,607.511V593.176h9.114v2.577h-5.776v3.19h4.963v2.577h-4.963v3.415h6.04v2.576Z" transform="translate(-468.177 -233.759)" fill="#fff"/>
    <path id="Path_170" data-name="Path 170" d="M856.243,593.186v12.883H862.4v1.452h-7.791V593.186Z" transform="translate(-171.888 -233.766)" fill="#fff"/>
  </g>
</svg>
