<svg xmlns="http://www.w3.org/2000/svg" width="155.48" height="72.843" viewBox="0 0 155.48 72.843">
  <g id="Energy" transform="translate(-299.469 -391.019)">
    <g id="Group_2665" data-name="Group 2665" transform="translate(366.496 391.251)">
      <path id="Path_198" data-name="Path 198" d="M570.725,422.473H559.676l-6.181-2.953a1.37,1.37,0,0,0-1.458.179l-4.879,4.662-6.1-32.039a1,1,0,0,0-1.065-.666,1.023,1.023,0,0,0-1.062.656l-11.792,56.315L521.7,420.058a.954.954,0,0,0-.888-.656,1.226,1.226,0,0,0-1.139.415l-3.339,4.785-3.34-4.785a1.1,1.1,0,0,0-.79-.415,1.339,1.339,0,0,0-.932.215l-3.987,2.856H484.047a.7.7,0,0,0-.7.7h0a.7.7,0,0,0,.7.7h23.6c.285,0,.645.062.847-.082l3.247-2.326,3.634,5.208a1.38,1.38,0,0,0,1.924,0l2.745-3.932,5.981,31.43a1.187,1.187,0,0,0,2.128.009l11.792-56.316,5.438,28.568a.922.922,0,0,0,.794.643,1.342,1.342,0,0,0,1.131-.284l5.841-5.58,5.606,2.677a1.4,1.4,0,0,0,.6.129h11.374c.594,0,1.075-.344,1.075-.77S571.319,422.473,570.725,422.473Z" transform="translate(-483.348 -391.655)" fill="#fff"/>
    </g>
    <g id="Group_2666" data-name="Group 2666" transform="translate(374.11 449.089)">
      <path id="Path_199" data-name="Path 199" d="M511.9,561.371c0-2.245-7.017-1.942-7.017-6.413,0-2.347,2.216-4.187,5.366-4.187a6.2,6.2,0,0,1,4.628,1.7l-2.064,2.286a3.621,3.621,0,0,0-2.846-1.315c-1.086,0-1.695.567-1.695,1.274,0,2.286,7,1.942,7,6.453,0,2.124-1.89,4.187-5.758,4.187a7.685,7.685,0,0,1-5.279-1.76l1.89-2.549a5.686,5.686,0,0,0,3.823,1.7C511.273,562.747,511.9,562.12,511.9,561.371Z" transform="translate(-504.234 -550.609)" fill="#fff"/>
      <path id="Path_200" data-name="Path 200" d="M553.519,565.507V551.326h9.016v2.549h-5.714v3.156h4.91v2.549h-4.91v3.379H562.8v2.549Z" transform="translate(-535.554 -550.961)" fill="#fff"/>
      <path id="Path_201" data-name="Path 201" d="M602.314,554.229c.152,1.417-.092,2.47-.092,4.918v5.361H599.05V550.326h3.976l3.107,5.583a38.921,38.921,0,0,1,2.151,4.349h.087c-.174-1.982-.174-3.944-.174-5.441v-4.491h3.15v14.181h-3.889l-3.346-5.988a39.039,39.039,0,0,1-2.02-4.329Z" transform="translate(-564.488 -550.326)" fill="#fff"/>
      <path id="Path_202" data-name="Path 202" d="M658.8,561.371c0-2.245-7.017-1.942-7.017-6.413,0-2.347,2.216-4.187,5.366-4.187a6.2,6.2,0,0,1,4.628,1.7l-2.064,2.286a3.622,3.622,0,0,0-2.846-1.315c-1.086,0-1.694.567-1.694,1.274,0,2.286,7,1.942,7,6.453,0,2.124-1.89,4.187-5.758,4.187a7.684,7.684,0,0,1-5.279-1.76l1.89-2.549a5.686,5.686,0,0,0,3.824,1.7C658.174,562.747,658.8,562.12,658.8,561.371Z" transform="translate(-597.587 -550.609)" fill="#fff"/>
      <path id="Path_203" data-name="Path 203" d="M700.42,565.507V551.326h9.016v2.549h-5.714v3.156h4.91v2.549h-4.91v3.379H709.7v2.549Z" transform="translate(-628.906 -550.961)" fill="#fff"/>
    </g>
    <path id="Path_224" data-name="Path 224" d="M299.469,565.574V551.393h7.525v1.437h-5.907v4.835h5.2V559.1h-5.2v5.037h6.19v1.437Z" transform="translate(0 -101.915)" fill="#fff"/>
    <path id="Path_225" data-name="Path 225" d="M333.719,553.315c.04.3.061,3.257.061,3.763v8.5h-1.538V551.393h2.266l4.774,8.982c.141.283,1.517,2.893,1.639,3.2h.141c-.04-.425-.04-3.479-.04-3.8v-8.375h1.517v14.181h-2.225l-4.815-9.043c-.142-.283-1.5-2.873-1.618-3.216Z" transform="translate(-20.827 -101.915)" fill="#fff"/>
    <path id="Path_226" data-name="Path 226" d="M371.98,565.574V551.393h7.526v1.437H373.6v4.835h5.2V559.1h-5.2v5.037h6.19v1.437Z" transform="translate(-46.079 -101.915)" fill="#fff"/>
    <path id="Path_227" data-name="Path 227" d="M405.789,551.393c2.954,0,4.733,1.153,4.733,3.986a3.617,3.617,0,0,1-3.2,3.864v.081a4.041,4.041,0,0,1,1.719,1.821l2.61,4.43h-1.922l-2.569-4.532a2.328,2.328,0,0,0-2.2-1.355h-1.113v5.887h-1.618V551.393Zm-1.942,6.9h1.821c1.962,0,3.2-.769,3.2-2.731,0-1.982-1.153-2.731-3.3-2.731h-1.719Z" transform="translate(-65.302 -101.915)" fill="#fff"/>
    <path id="Path_228" data-name="Path 228" d="M442.412,552.053l-1.052,1.234a4.055,4.055,0,0,0-2.953-.971c-2.064,0-4.329,1.092-4.329,5.725,0,4.268,1.517,5.968,4.289,5.968a4.871,4.871,0,0,0,2.489-.566v-5.421h1.618v6.129a6.7,6.7,0,0,1-4.45,1.274c-3.662,0-5.6-2.407-5.6-7.242,0-5.118,2.71-7.343,6.089-7.343A5.358,5.358,0,0,1,442.412,552.053Z" transform="translate(-84.487 -101.563)" fill="#fff"/>
    <path id="Path_229" data-name="Path 229" d="M477.039,551.393l-4.693,9.063v5.118h-1.6v-5.118l-4.693-9.063H467.9l3.661,7.4h.081l3.662-7.4Z" transform="translate(-105.862 -101.915)" fill="#fff"/>
    <path id="Path_230" data-name="Path 230" d="M356.8,443.5a.676.676,0,0,1-.634-.912l8.738-23.623-8.991.115a.681.681,0,0,1-.576-.308.673.673,0,0,1-.048-.651l12.184-26.7a.681.681,0,0,1,.616-.4H381.83a.677.677,0,0,1,.565,1.051l-12.41,18.778H380.27a.677.677,0,0,1,.541,1.084l-23.473,31.294A.677.677,0,0,1,356.8,443.5Zm9.082-25.9a.678.678,0,0,1,.635.912l-7.467,20.187,19.869-26.49H368.726a.678.678,0,0,1-.565-1.051l12.41-18.778H368.52L356.96,417.707Z" transform="translate(-35.43 0)" fill="#fff"/>
    <path id="Path_231" data-name="Path 231" d="M444.337,468.038h-4.06v-4.061a.7.7,0,0,0-1.407,0v4.061h-4.06a.7.7,0,1,0,0,1.407h4.06v4.061a.7.7,0,0,0,1.407,0v-4.061h4.06a.7.7,0,1,0,0-1.407Z" transform="translate(-85.559 -45.916)" fill="#fff"/>
    <rect id="Rectangle_30" data-name="Rectangle 30" width="10.936" height="1.407" rx="0.704" transform="translate(299.469 422.035)" fill="#fff"/>
  </g>
</svg>
