<svg xmlns="http://www.w3.org/2000/svg" width="155.398" height="76.794" viewBox="0 0 155.398 76.794">
  <g id="Factory" transform="translate(-296.798 -387.224)">
    <g id="Group_2717" data-name="Group 2717" transform="translate(375.477 394.17)">
      <path id="Path_339" data-name="Path 339" d="M521.979,438.015H538.45c.274,0,.62.06.814-.079l3.122-2.237,3.494,5.007a1.327,1.327,0,0,0,1.85,0l2.639-3.78,5.751,30.217a1.142,1.142,0,0,0,2.046.009L569.5,413.01l5.228,27.465a.887.887,0,0,0,.763.618,1.289,1.289,0,0,0,1.088-.274l5.616-5.364,5.39,2.573a1.342,1.342,0,0,0,.574.124h8.832c.571,0,1.034-.331,1.034-.74s-.463-.741-1.034-.741h-8.519l-5.943-2.838a1.318,1.318,0,0,0-1.4.172l-4.691,4.482-5.865-30.8a.964.964,0,0,0-1.024-.641.984.984,0,0,0-1.021.63l-11.337,54.141-5.228-27.466a.917.917,0,0,0-.854-.63,1.178,1.178,0,0,0-1.095.4l-3.211,4.6-3.211-4.6a1.06,1.06,0,0,0-.759-.4,1.289,1.289,0,0,0-.9.206l-3.833,2.746H521.991c-.572,0-.684.331-.684.741S521.407,438.015,521.979,438.015Z" transform="translate(-521.307 -407.043)" fill="#fff"/>
    </g>
    <g id="Group_2718" data-name="Group 2718" transform="translate(379.034 449.776)">
      <path id="Path_340" data-name="Path 340" d="M538.829,576.349c0-2.159-6.747-1.867-6.747-6.165,0-2.256,2.13-4.026,5.159-4.026a5.963,5.963,0,0,1,4.449,1.634l-1.984,2.2a3.482,3.482,0,0,0-2.736-1.264c-1.044,0-1.629.545-1.629,1.225,0,2.2,6.725,1.867,6.725,6.2,0,2.042-1.817,4.026-5.535,4.026a7.387,7.387,0,0,1-5.075-1.692l1.817-2.45a5.466,5.466,0,0,0,3.676,1.633C538.224,577.672,538.829,577.069,538.829,576.349Z" transform="translate(-531.456 -566.002)" fill="#fff"/>
      <path id="Path_341" data-name="Path 341" d="M576.741,580.347V566.714h8.668v2.45h-5.493V572.2h4.72v2.45h-4.72V577.9h5.744v2.45Z" transform="translate(-560.871 -566.364)" fill="#fff"/>
      <path id="Path_342" data-name="Path 342" d="M621.409,569.466c.146,1.362-.088,2.374-.088,4.728v5.154h-3.05V565.714h3.822l2.987,5.368a37.316,37.316,0,0,1,2.068,4.181h.084c-.167-1.906-.167-3.792-.167-5.232v-4.317h3.029v13.633h-3.738l-3.217-5.756a37.566,37.566,0,0,1-1.943-4.162Z" transform="translate(-587.847 -565.714)" fill="#fff"/>
      <path id="Path_343" data-name="Path 343" d="M673.729,576.349c0-2.159-6.746-1.867-6.746-6.165,0-2.256,2.131-4.026,5.159-4.026a5.962,5.962,0,0,1,4.449,1.634l-1.984,2.2a3.481,3.481,0,0,0-2.736-1.264c-1.044,0-1.629.545-1.629,1.225,0,2.2,6.726,1.867,6.726,6.2,0,2.042-1.817,4.026-5.535,4.026a7.388,7.388,0,0,1-5.076-1.692l1.818-2.45a5.466,5.466,0,0,0,3.676,1.633C673.123,577.672,673.729,577.069,673.729,576.349Z" transform="translate(-619.08 -566.002)" fill="#fff"/>
      <path id="Path_344" data-name="Path 344" d="M711.642,580.347V566.714h8.668v2.45h-5.493V572.2h4.721v2.45h-4.721V577.9h5.744v2.45Z" transform="translate(-648.496 -566.364)" fill="#fff"/>
    </g>
    <path id="Path_345" data-name="Path 345" d="M296.8,580.529V566.9h7.2v1.381h-5.62v5.018h4.94v1.381h-4.94v5.854Z" transform="translate(0 -116.706)" fill="#fff"/>
    <path id="Path_346" data-name="Path 346" d="M329.05,566.9l4.415,13.633h-1.634l-1.264-3.967h-5.485l-1.264,3.967h-1.595l4.415-13.633Zm-3.52,8.285h4.59l-1.459-4.59c-.1-.389-.739-2.373-.8-2.625h-.078c-.039.233-.681,2.217-.778,2.586Z" transform="translate(-16.515 -116.706)" fill="#fff"/>
    <path id="Path_347" data-name="Path 347" d="M365.6,566.341a5.315,5.315,0,0,1,3.617,1.128l-.972,1.187a4.042,4.042,0,0,0-2.8-.914c-2.373,0-3.831,1.731-3.831,5.582,0,3.7,1.381,5.621,3.987,5.621a3.654,3.654,0,0,0,2.664-.836l.856,1.108a5.3,5.3,0,0,1-3.734,1.148c-3.754,0-5.368-2.7-5.368-6.9C360.021,568.986,361.966,566.341,365.6,566.341Z" transform="translate(-41.067 -116.346)" fill="#fff"/>
    <path id="Path_348" data-name="Path 348" d="M397.518,568.277h-3.637V566.9h8.81v1.381h-3.617v12.253h-1.556Z" transform="translate(-63.06 -116.706)" fill="#fff"/>
    <path id="Path_349" data-name="Path 349" d="M430.509,580.364c-3.248,0-5.212-1.925-5.212-6.943,0-5.037,2.081-7.079,5.368-7.079,3.229,0,5.212,1.925,5.212,6.943C435.877,578.321,433.777,580.364,430.509,580.364Zm.1-1.4c2.256,0,3.676-1.323,3.676-5.543,0-4.259-1.459-5.679-3.734-5.679-2.217,0-3.656,1.3-3.656,5.543C426.892,577.543,428.35,578.964,430.607,578.964Z" transform="translate(-83.467 -116.346)" fill="#fff"/>
    <path id="Path_350" data-name="Path 350" d="M468.514,566.9c2.84,0,4.551,1.109,4.551,3.831a3.478,3.478,0,0,1-3.073,3.715v.078a3.881,3.881,0,0,1,1.653,1.75l2.509,4.259h-1.848l-2.47-4.357a2.238,2.238,0,0,0-2.12-1.3h-1.07v5.659h-1.556V566.9Zm-1.867,6.632h1.75c1.887,0,3.073-.739,3.073-2.626,0-1.906-1.108-2.626-3.17-2.626h-1.653Z" transform="translate(-109.315 -116.706)" fill="#fff"/>
    <path id="Path_351" data-name="Path 351" d="M503.681,566.9l-4.512,8.713v4.921h-1.536v-4.921L493.12,566.9h1.77l3.52,7.118h.077l3.52-7.118Z" transform="translate(-127.521 -116.706)" fill="#fff"/>
    <g id="Group_2723" data-name="Group 2723" transform="translate(296.83 387.224)">
      <g id="Group_2719" data-name="Group 2719" transform="translate(38.348)">
        <path id="Path_352" data-name="Path 352" d="M407.056,416.911l-.054,0a.742.742,0,0,1-.686-.792l2.015-28.205a.741.741,0,0,1,.739-.688h6.518a.741.741,0,0,1,.739.688l2.013,28.177a.741.741,0,1,1-1.479.105L414.9,388.706H409.76l-1.966,27.517A.741.741,0,0,1,407.056,416.911Z" transform="translate(-406.314 -387.224)" fill="#fff"/>
      </g>
      <g id="Group_2720" data-name="Group 2720" transform="translate(4.611 8.563)">
        <path id="Path_353" data-name="Path 353" d="M339.77,432.9a.741.741,0,0,1-.741-.741V413.474a.333.333,0,0,0-.333-.333H311.861a.333.333,0,0,0-.333.333v18.687a.741.741,0,1,1-1.482,0V413.474a1.817,1.817,0,0,1,1.815-1.815H338.7a1.817,1.817,0,0,1,1.815,1.815v18.687A.741.741,0,0,1,339.77,432.9Z" transform="translate(-310.046 -411.659)" fill="#fff"/>
      </g>
      <g id="Group_2721" data-name="Group 2721" transform="translate(56.785)">
        <path id="Path_354" data-name="Path 354" d="M459.666,417l-.054,0a.741.741,0,0,1-.687-.792l2.021-28.3a.741.741,0,0,1,.74-.688H468.2a.741.741,0,0,1,.739.688l2.02,28.272a.741.741,0,0,1-1.479.106l-1.97-27.583h-5.138L460.4,416.316A.741.741,0,0,1,459.666,417Z" transform="translate(-458.924 -387.224)" fill="#fff"/>
      </g>
      <g id="Group_2722" data-name="Group 2722" transform="translate(0 28.324)">
        <path id="Path_355" data-name="Path 355" d="M376.016,477.612a.741.741,0,0,1-.741-.741v-6.15a1.193,1.193,0,0,0-1.192-1.192h-74.52a1.193,1.193,0,0,0-1.192,1.192v24.415a.741.741,0,1,1-1.482,0V470.721a2.677,2.677,0,0,1,2.674-2.674h74.52a2.677,2.677,0,0,1,2.675,2.674v6.15A.741.741,0,0,1,376.016,477.612Z" transform="translate(-296.889 -468.047)" fill="#fff"/>
      </g>
    </g>
  </g>
</svg>
