<svg xmlns="http://www.w3.org/2000/svg" xmlns:xlink="http://www.w3.org/1999/xlink" width="191" height="97" viewBox="0 0 191 97">
  <defs>
    <clipPath id="clip-path">
      <rect id="Rectangle_70" data-name="Rectangle 70" width="191" height="97" transform="translate(4991 10312)" fill="red" opacity="0.748"/>
    </clipPath>
  </defs>
  <g id="Mask_Group_8" data-name="Mask Group 8" transform="translate(-4991 -10312)" clip-path="url(#clip-path)">
    <g id="Health" transform="translate(4716.138 9947.771)">
      <g id="Group_2670" data-name="Group 2670" transform="translate(288.862 388.387)">
        <g id="Group_2668" data-name="Group 2668" transform="translate(75.414 58.079)">
          <path id="Path_232" data-name="Path 232" d="M504.607,558.6c0-2.248-7.025-1.944-7.025-6.42,0-2.349,2.218-4.192,5.372-4.192a6.21,6.21,0,0,1,4.633,1.7l-2.066,2.288a3.626,3.626,0,0,0-2.849-1.317c-1.087,0-1.7.567-1.7,1.276,0,2.288,7,1.944,7,6.461,0,2.126-1.892,4.192-5.764,4.192a7.693,7.693,0,0,1-5.285-1.762l1.892-2.551a5.693,5.693,0,0,0,3.828,1.7C503.976,559.975,504.607,559.347,504.607,558.6Z" transform="translate(-496.929 -547.824)" fill="#fff"/>
          <path id="Path_233" data-name="Path 233" d="M546.214,562.738v-14.2h9.026v2.552h-5.72v3.159h4.915V556.8H549.52v3.382H555.5v2.552Z" transform="translate(-528.229 -548.176)" fill="#fff"/>
          <path id="Path_234" data-name="Path 234" d="M595.011,551.448c.152,1.418-.092,2.472-.092,4.923v5.367h-3.176v-14.2h3.98l3.11,5.589a38.869,38.869,0,0,1,2.153,4.354h.087c-.174-1.984-.174-3.949-.174-5.448v-4.5h3.154v14.2h-3.893l-3.35-5.995a39.116,39.116,0,0,1-2.023-4.334Z" transform="translate(-557.144 -547.541)" fill="#fff"/>
          <path id="Path_235" data-name="Path 235" d="M651.507,558.6c0-2.248-7.025-1.944-7.025-6.42,0-2.349,2.218-4.192,5.372-4.192a6.209,6.209,0,0,1,4.633,1.7l-2.066,2.288a3.624,3.624,0,0,0-2.849-1.317c-1.087,0-1.7.567-1.7,1.276,0,2.288,7,1.944,7,6.461,0,2.126-1.892,4.192-5.764,4.192a7.694,7.694,0,0,1-5.285-1.762l1.893-2.551a5.692,5.692,0,0,0,3.828,1.7C650.876,559.975,651.507,559.347,651.507,558.6Z" transform="translate(-590.222 -547.824)" fill="#fff"/>
          <path id="Path_236" data-name="Path 236" d="M693.114,562.738v-14.2h9.026v2.552h-5.72v3.159h4.916V556.8H696.42v3.382H702.4v2.552Z" transform="translate(-621.522 -548.176)" fill="#fff"/>
        </g>
        <path id="Path_237" data-name="Path 237" d="M303.777,548.717v14.2h-1.62v-6.46h-6.866v6.46h-1.62v-14.2h1.62v6.3h6.866v-6.3Z" transform="translate(-292.431 -490.209)" fill="#fff"/>
        <path id="Path_238" data-name="Path 238" d="M330.8,562.914v-14.2h7.533v1.438H332.42V555h5.2v1.438h-5.2v5.042h6.2v1.438Z" transform="translate(-316.01 -490.209)" fill="#fff"/>
        <path id="Path_239" data-name="Path 239" d="M365.383,548.717l4.6,14.2h-1.7l-1.316-4.131h-5.711l-1.316,4.131h-1.661l4.6-14.2Zm-3.666,8.627H366.5l-1.519-4.779c-.1-.405-.77-2.471-.83-2.734h-.081c-.04.243-.709,2.308-.81,2.693Z" transform="translate(-333.459 -490.209)" fill="#fff"/>
        <path id="Path_240" data-name="Path 240" d="M400.634,548.717v12.758h6.1v1.438h-7.716v-14.2Z" transform="translate(-359.331 -490.209)" fill="#fff"/>
        <path id="Path_241" data-name="Path 241" d="M423.951,550.155h-3.787v-1.438h9.174v1.438h-3.767v12.758h-1.62Z" transform="translate(-372.763 -490.209)" fill="#fff"/>
        <path id="Path_242" data-name="Path 242" d="M461.294,548.717v14.2h-1.62v-6.46h-6.865v6.46h-1.62v-14.2h1.62v6.3h6.865v-6.3Z" transform="translate(-392.466 -490.209)" fill="#fff"/>
        <g id="Group_2669" data-name="Group 2669" transform="translate(0)">
          <path id="Path_243" data-name="Path 243" d="M320.488,442.154a.7.7,0,0,1-.378-.111,117.626,117.626,0,0,1-14.86-11.8c-9.939-9.378-14.979-17.939-14.979-25.444a16.639,16.639,0,0,1,30.01-9.673l.207.286.207-.286A16.639,16.639,0,0,1,350.7,404.8c0,4.62-1.961,9.722-5.829,15.163a.7.7,0,0,1-1.136-.807c3.7-5.2,5.572-10.031,5.572-14.356a15.234,15.234,0,0,0-28.226-7.736.7.7,0,0,1-1.195,0,15.234,15.234,0,0,0-28.226,7.736c0,6.661,4.338,14.339,12.895,22.819a116.273,116.273,0,0,0,15.786,12.911l.143.1.143-.1A110.685,110.685,0,0,0,339.14,424.8a.7.7,0,0,1,1.029.94,112.154,112.154,0,0,1-19.3,16.3A.7.7,0,0,1,320.488,442.154Z" transform="translate(-290.271 -388.387)" fill="#fff"/>
        </g>
        <path id="Path_244" data-name="Path 244" d="M478.988,419.722h-16.9l-6.188-2.956a1.372,1.372,0,0,0-1.46.179l-4.884,4.667-6.107-32.075a1,1,0,0,0-1.066-.667,1.025,1.025,0,0,0-1.063.657l-11.8,56.378-5.444-28.6a.955.955,0,0,0-.889-.657,1.227,1.227,0,0,0-1.14.416l-3.343,4.79-3.343-4.79a1.105,1.105,0,0,0-.79-.416,1.342,1.342,0,0,0-.934.215l-3.991,2.859H392.86c-.031,0-.061,0-.091.007h-34.93l-2.094-3.491a.7.7,0,0,0-1.231.047l-3.116,6.233-5.561-14.6a.7.7,0,0,0-.656-.452h0a.7.7,0,0,0-.656.456L340.1,419.728h-5.644a.7.7,0,1,0,0,1.4h6.131a.7.7,0,0,0,.658-.456l3.946-10.521,5.469,14.356a.7.7,0,0,0,.621.452h.035a.7.7,0,0,0,.628-.388l3.259-6.519,1.641,2.734a.7.7,0,0,0,.6.341H397a.67.67,0,0,0,.122-.012H410c.286,0,.645.062.847-.082l3.251-2.329,3.638,5.214a1.382,1.382,0,0,0,1.926,0l2.748-3.936,5.988,31.465a1.189,1.189,0,0,0,2.13.009l11.8-56.378,5.444,28.6a.923.923,0,0,0,.795.643,1.343,1.343,0,0,0,1.133-.285l5.848-5.586,5.613,2.68a1.4,1.4,0,0,0,.6.129h17.225c.595,0,1.077-.345,1.077-.771S479.582,419.722,478.988,419.722Z" transform="translate(-317.883 -388.694)" fill="#fff"/>
      </g>
    </g>
  </g>
</svg>
