<svg xmlns="http://www.w3.org/2000/svg" xmlns:xlink="http://www.w3.org/1999/xlink" width="191" height="97" viewBox="0 0 191 97">
  <defs>
    <clipPath id="clip-path">
      <rect id="Rectangle_77" data-name="Rectangle 77" width="191" height="97" transform="translate(5277 10587)" fill="red" opacity="0.748"/>
    </clipPath>
  </defs>
  <g id="Mask_Group_14" data-name="Mask Group 14" transform="translate(-5277 -10587)" clip-path="url(#clip-path)">
    <g id="Housesense" transform="translate(4976.1 10225.9)">
      <path id="Path_276" data-name="Path 276" d="M331.566,561.642V575.81h-1.617v-6.447H323.1v6.447h-1.617V561.642H323.1v6.286h6.852v-6.286Z" transform="translate(-0.369 -118.193)" fill="#fff"/>
      <path id="Path_277" data-name="Path 277" d="M369.194,575.659c-3.375,0-5.416-2-5.416-7.215,0-5.235,2.162-7.357,5.578-7.357,3.355,0,5.417,2,5.417,7.216C374.772,573.537,372.59,575.659,369.194,575.659Zm.1-1.455c2.345,0,3.82-1.375,3.82-5.76,0-4.427-1.516-5.9-3.881-5.9-2.3,0-3.8,1.354-3.8,5.76C365.435,572.729,366.951,574.2,369.3,574.2Z" transform="translate(-27.262 -117.84)" fill="#fff"/>
      <path id="Path_278" data-name="Path 278" d="M412.853,571.081v-9.439h1.617v9.237c0,3.416-1.98,5.134-5.154,5.134-3.193,0-4.911-1.839-4.911-4.891v-9.479h1.617v9.237c0,2.547,1.354,3.679,3.476,3.679C411.56,574.557,412.853,573.607,412.853,571.081Z" transform="translate(-53.093 -118.193)" fill="#fff"/>
      <path id="Path_279" data-name="Path 279" d="M447.333,571.84c0-3.214-6.751-2.486-6.751-6.953,0-2.143,1.839-3.8,4.386-3.8a5.724,5.724,0,0,1,3.658,1.193l-.99,1.253a4.246,4.246,0,0,0-2.769-.97c-1.657,0-2.648.93-2.648,2.223,0,3.274,6.751,2.587,6.751,6.952,0,2.142-1.7,3.921-4.73,3.921a6.559,6.559,0,0,1-4.426-1.5l.95-1.294a5.477,5.477,0,0,0,3.618,1.334C446.3,574.2,447.333,573.153,447.333,571.84Z" transform="translate(-75.607 -117.84)" fill="#fff"/>
      <path id="Path_280" data-name="Path 280" d="M474.892,575.81V561.642h7.519v1.435h-5.9v4.83H481.7v1.435h-5.194v5.032h6.184v1.435Z" transform="translate(-97.91 -118.193)" fill="#fff"/>
      <g id="Group_2683" data-name="Group 2683" transform="translate(320.9 375.749)">
        <path id="Path_281" data-name="Path 281" d="M383.825,408.625a.8.8,0,0,0,.536.149.94.94,0,0,0,.573-.188.828.828,0,0,0-.037-1.039l-15.47-15.536V381.174a.752.752,0,0,0-.788-.749.711.711,0,0,0-.684.749v9.384L353.479,376a.712.712,0,0,0-.46-.247.726.726,0,0,0-.534.254L321.14,407.344a.794.794,0,0,0-.24.5v.057a.5.5,0,0,0,.178.382l.063.055.055.064a.5.5,0,0,0,.4.182.789.789,0,0,0,.547-.243l30.879-30.8Z" transform="translate(-320.9 -375.749)" fill="#fff"/>
        <path id="Path_282" data-name="Path 282" d="M481.543,433.151H475.6l-6.176-2.95a1.369,1.369,0,0,0-1.456.179l-4.875,4.658L457,403.028a1,1,0,0,0-1.064-.666,1.022,1.022,0,0,0-1.061.656L443.1,459.281l-5.434-28.543a.953.953,0,0,0-.887-.655,1.225,1.225,0,0,0-1.138.415l-3.336,4.781-3.337-4.781a1.1,1.1,0,0,0-.789-.415,1.341,1.341,0,0,0-.932.215l-3.983,2.853H390.126c-.015,0-.026,0-.041,0h-.011a.83.83,0,0,0-.146.013h0a.743.743,0,0,0-.123.034.623.623,0,0,0-.094.042.726.726,0,0,0-.383.661v17.542h-15.2V439.579a.727.727,0,0,0-.682-.716h-9.831a.775.775,0,0,0-.789.716v11.868H347.293v-26.5a.714.714,0,0,0-.752-.687.7.7,0,0,0-.68.687V452.2a.7.7,0,0,0,.68.687h17.071a.7.7,0,0,0,.679-.687V440.334h8.4V452.2a.714.714,0,0,0,.752.687h16.631a.7.7,0,0,0,.682-.687V434.548h32.863c.285,0,.644.062.846-.083l3.244-2.324,3.631,5.2a1.379,1.379,0,0,0,1.922,0L436,433.416l5.977,31.4a1.186,1.186,0,0,0,2.126.009l11.781-56.264L461.32,437.1a.922.922,0,0,0,.794.642,1.341,1.341,0,0,0,1.13-.284l5.836-5.574,5.6,2.674a1.393,1.393,0,0,0,.6.129h6.265c.594,0,1.074-.344,1.074-.77S482.136,433.151,481.543,433.151Z" transform="translate(-336.77 -392.669)" fill="#fff"/>
      </g>
      <g id="Group_2685" data-name="Group 2685" transform="translate(391.183 443.366)">
        <g id="Group_2684" data-name="Group 2684" transform="translate(0)">
          <path id="Path_283" data-name="Path 283" d="M521.547,572.449c0-2.243-7.011-1.94-7.011-6.407,0-2.345,2.214-4.184,5.361-4.184a6.2,6.2,0,0,1,4.623,1.7l-2.062,2.284a3.617,3.617,0,0,0-2.843-1.314c-1.085,0-1.693.566-1.693,1.273,0,2.284,6.99,1.94,6.99,6.447,0,2.122-1.889,4.184-5.752,4.184a7.678,7.678,0,0,1-5.275-1.759l1.889-2.546a5.68,5.68,0,0,0,3.82,1.7C520.918,573.823,521.547,573.2,521.547,572.449Z" transform="translate(-513.885 -561.696)" fill="#fff"/>
          <path id="Path_284" data-name="Path 284" d="M563.17,576.581V562.413h9.008v2.547h-5.709v3.153h4.906v2.546h-4.906v3.376h5.969v2.546Z" transform="translate(-545.221 -562.049)" fill="#fff"/>
          <path id="Path_285" data-name="Path 285" d="M611.962,565.312c.152,1.415-.092,2.467-.092,4.913v5.356H608.7V561.413h3.972l3.1,5.578a38.883,38.883,0,0,1,2.149,4.345h.087c-.173-1.981-.173-3.941-.173-5.437v-4.487h3.147v14.168H617.1l-3.343-5.982a39.079,39.079,0,0,1-2.019-4.325Z" transform="translate(-574.17 -561.413)" fill="#fff"/>
          <path id="Path_286" data-name="Path 286" d="M668.448,572.449c0-2.243-7.011-1.94-7.011-6.407,0-2.345,2.214-4.184,5.361-4.184a6.2,6.2,0,0,1,4.624,1.7l-2.062,2.284a3.619,3.619,0,0,0-2.844-1.314c-1.085,0-1.693.566-1.693,1.273,0,2.284,6.989,1.94,6.989,6.447,0,2.122-1.889,4.184-5.752,4.184a7.676,7.676,0,0,1-5.274-1.759l1.888-2.546a5.681,5.681,0,0,0,3.82,1.7C667.818,573.823,668.448,573.2,668.448,572.449Z" transform="translate(-607.286 -561.696)" fill="#fff"/>
          <path id="Path_287" data-name="Path 287" d="M710.071,576.581V562.413h9.008v2.547H713.37v3.153h4.906v2.546H713.37v3.376h5.969v2.546Z" transform="translate(-638.622 -562.049)" fill="#fff"/>
        </g>
      </g>
    </g>
  </g>
</svg>
