<svg xmlns="http://www.w3.org/2000/svg" width="138.392" height="81.708" viewBox="0 0 138.392 81.708">
  <g id="motosense" transform="translate(-324.949 -381.36)">
    <path id="Path_302" data-name="Path 302" d="M581.426,569.172c.152,1.415-.092,2.466-.092,4.912v5.355h-3.168V565.274h3.971l3.1,5.577a38.875,38.875,0,0,1,2.149,4.344h.087c-.174-1.98-.174-3.94-.174-5.436v-4.486h3.147v14.165h-3.884l-3.342-5.981a38.983,38.983,0,0,1-2.018-4.324Z" transform="translate(-161.019 -116.95)" fill="#fff"/>
    <g id="Group_2697" data-name="Group 2697" transform="translate(324.949 381.36)">
      <path id="Path_303" data-name="Path 303" d="M338.529,576.1h.121l4.062-10.1h2.566v14.165h-1.556V567.9H343.6c-1.152,2.748-3.031,7.476-4.183,10.225H337.7L333.538,567.9h-.121v12.265h-1.536V566h2.587Z" transform="translate(-329.357 -498.77)" fill="#fff"/>
      <path id="Path_304" data-name="Path 304" d="M383.336,580.012c-3.374,0-5.415-2-5.415-7.214,0-5.233,2.162-7.355,5.577-7.355,3.355,0,5.415,2,5.415,7.214C388.913,577.89,386.731,580.012,383.336,580.012Zm.1-1.455c2.344,0,3.819-1.374,3.819-5.759,0-4.425-1.515-5.9-3.88-5.9-2.3,0-3.8,1.353-3.8,5.759C379.578,577.082,381.094,578.557,383.438,578.557Z" transform="translate(-358.633 -498.417)" fill="#fff"/>
      <path id="Path_305" data-name="Path 305" d="M416.471,567.433h-3.779V566h9.153v1.435h-3.758v12.73h-1.616Z" transform="translate(-380.744 -498.77)" fill="#fff"/>
      <path id="Path_306" data-name="Path 306" d="M446.523,580.012c-3.375,0-5.415-2-5.415-7.214,0-5.233,2.162-7.355,5.577-7.355,3.355,0,5.415,2,5.415,7.214C452.1,577.89,449.918,580.012,446.523,580.012Zm.1-1.455c2.344,0,3.819-1.374,3.819-5.759,0-4.425-1.515-5.9-3.88-5.9-2.3,0-3.8,1.353-3.8,5.759C442.764,577.082,444.28,578.557,446.624,578.557Z" transform="translate(-398.814 -498.417)" fill="#fff"/>
      <g id="Group_2696" data-name="Group 2696">
        <path id="Path_307" data-name="Path 307" d="M459.02,421.334h-7.4l-6.174-2.949a1.368,1.368,0,0,0-1.456.179l-4.874,4.657-6.093-32a1,1,0,0,0-1.063-.666,1.022,1.022,0,0,0-1.061.655l-11.779,56.252-5.432-28.537a.953.953,0,0,0-.887-.655,1.224,1.224,0,0,0-1.137.415l-3.336,4.78L405,418.681a1.1,1.1,0,0,0-.789-.415,1.338,1.338,0,0,0-.931.215l-3.983,2.853H356.912v-6.077a4.742,4.742,0,0,0-.948-2.853l-3.071-4.113a5.532,5.532,0,0,0,2.481-4.619v-1.816a5.525,5.525,0,0,0-4.285-5.386,5.769,5.769,0,0,0-.278-.531l2.845-2.083h10.989a.728.728,0,1,0,0-1.456h-5.694v-1.888l3.138-3.171a3.168,3.168,0,0,0,1.693.489h0a3.175,3.175,0,0,0,2.272-.95,3.26,3.26,0,0,0,0-4.571,3.175,3.175,0,0,0-2.272-.951h0a3.176,3.176,0,0,0-2.272.951,3.261,3.261,0,0,0-.447,4l-3.357,3.393a.729.729,0,0,0-.21.512V392.4h-4.078a.728.728,0,0,0-.43.141l-3.069,2.246a5.587,5.587,0,0,0-7.9,0l-3.069-2.247a.729.729,0,0,0-.43-.141h-4.078v-2.187a.729.729,0,0,0-.21-.512l-3.357-3.393a3.262,3.262,0,0,0-.447-4,3.191,3.191,0,0,0-4.545,0,3.261,3.261,0,0,0,0,4.571,3.185,3.185,0,0,0,3.966.461l3.138,3.171V392.4h-5.694a.728.728,0,0,0,0,1.456h10.99l2.845,2.083a5.786,5.786,0,0,0-.279.531,5.526,5.526,0,0,0-4.282,5.386v1.816a5.533,5.533,0,0,0,2.474,4.615l-3.074,4.117a4.8,4.8,0,0,0-.939,2.852v8.2a4.8,4.8,0,0,0,.938,2.851l.3.4a.728.728,0,0,0,1.17-.868l-.3-.4a3.332,3.332,0,0,1-.65-1.982v-8.2a3.333,3.333,0,0,1,.65-1.981l3.047-4.081h11.566l3.051,4.086a3.279,3.279,0,0,1,.655,1.976v6.748a.728.728,0,0,0,.728.728c.025,0,.048-.005.072-.007s.043,0,.068,0h43.329c.285,0,.644.062.846-.083l3.243-2.323,3.63,5.2a1.379,1.379,0,0,0,1.922,0l2.742-3.928,5.975,31.394a1.186,1.186,0,0,0,2.126.009l11.778-56.252,5.432,28.535a.921.921,0,0,0,.793.642,1.342,1.342,0,0,0,1.13-.284l5.834-5.573,5.6,2.674a1.4,1.4,0,0,0,.6.129h7.72c.593,0,1.074-.344,1.074-.769S459.614,421.334,459.02,421.334Zm-96.475-38a1.735,1.735,0,0,1,2.474,0,1.8,1.8,0,0,1,0,2.522,1.735,1.735,0,0,1-2.474,0A1.8,1.8,0,0,1,362.546,383.335Zm-35.627,2.522a1.8,1.8,0,0,1,0-2.522,1.735,1.735,0,0,1,2.474,0,1.8,1.8,0,0,1,0,2.522,1.735,1.735,0,0,1-2.474,0Zm19.05,8.754a4.243,4.243,0,1,1-3.924,2.782.755.755,0,0,0,.035-.1A4.189,4.189,0,0,1,345.969,394.611Zm-3.929,13.129a4.046,4.046,0,0,1-4.016-4.066v-1.816a4.082,4.082,0,0,1,2.35-3.7,5.642,5.642,0,1,0,11.235.685,5.762,5.762,0,0,0-.045-.687,4.082,4.082,0,0,1,2.353,3.7v1.816a4.046,4.046,0,0,1-4.016,4.066Z" transform="translate(-324.949 -381.36)" fill="#fff"/>
        <path id="Path_308" data-name="Path 308" d="M377.941,481.554a2.716,2.716,0,0,0-2.713,2.713v19.991a2.713,2.713,0,1,0,5.427,0V484.267A2.716,2.716,0,0,0,377.941,481.554Zm1.257,22.7a1.257,1.257,0,1,1-2.514,0V484.267a1.257,1.257,0,0,1,2.514,0Z" transform="translate(-356.921 -445.073)" fill="#fff"/>
      </g>
    </g>
    <g id="Group_2699" data-name="Group 2699" transform="translate(382.642 448.337)">
      <g id="Group_2698" data-name="Group 2698">
        <path id="Path_309" data-name="Path 309" d="M491.06,576.342c0-2.243-7.009-1.94-7.009-6.405,0-2.344,2.213-4.183,5.36-4.183a6.2,6.2,0,0,1,4.622,1.7l-2.062,2.283a3.617,3.617,0,0,0-2.843-1.313c-1.085,0-1.692.565-1.692,1.273,0,2.283,6.988,1.94,6.988,6.446,0,2.122-1.888,4.183-5.751,4.183a7.676,7.676,0,0,1-5.273-1.758l1.888-2.546a5.678,5.678,0,0,0,3.819,1.7C490.431,577.716,491.06,577.09,491.06,576.342Z" transform="translate(-483.4 -565.592)" fill="#fff"/>
        <path id="Path_310" data-name="Path 310" d="M532.685,580.474V566.309h9.006v2.546h-5.707v3.152h4.9v2.546h-4.9v3.375h5.968v2.546Z" transform="translate(-514.74 -565.945)" fill="#fff"/>
        <path id="Path_311" data-name="Path 311" d="M581.475,569.208c.152,1.415-.092,2.467-.092,4.912v5.354h-3.169V565.309h3.971l3.1,5.577a38.865,38.865,0,0,1,2.149,4.345h.087c-.174-1.98-.174-3.94-.174-5.436v-4.486H590.5v14.165h-3.884l-3.342-5.981a38.978,38.978,0,0,1-2.018-4.324Z" transform="translate(-543.692 -565.309)" fill="#fff"/>
        <path id="Path_312" data-name="Path 312" d="M637.961,576.342c0-2.243-7.009-1.94-7.009-6.405,0-2.344,2.214-4.183,5.36-4.183a6.2,6.2,0,0,1,4.622,1.7l-2.062,2.283a3.616,3.616,0,0,0-2.843-1.313c-1.085,0-1.693.565-1.693,1.273,0,2.283,6.988,1.94,6.988,6.446,0,2.122-1.888,4.183-5.751,4.183a7.677,7.677,0,0,1-5.273-1.758l1.888-2.546a5.679,5.679,0,0,0,3.819,1.7C637.331,577.716,637.961,577.09,637.961,576.342Z" transform="translate(-576.813 -565.592)" fill="#fff"/>
        <path id="Path_313" data-name="Path 313" d="M679.586,580.474V566.309h9.005v2.546h-5.707v3.152h4.9v2.546h-4.9v3.375h5.968v2.546Z" transform="translate(-608.153 -565.945)" fill="#fff"/>
      </g>
    </g>
  </g>
</svg>
