<svg xmlns="http://www.w3.org/2000/svg" xmlns:xlink="http://www.w3.org/1999/xlink" width="191" height="97" viewBox="0 0 191 97">
  <defs>
    <clipPath id="clip-path">
      <rect id="Rectangle_74" data-name="Rectangle 74" width="191" height="97" transform="translate(4419 10587)" fill="red" opacity="0.748"/>
    </clipPath>
  </defs>
  <g id="Mask_Group_11" data-name="Mask Group 11" transform="translate(-4419 -10587)" clip-path="url(#clip-path)">
    <g id="Group_2818" data-name="Group 2818" transform="translate(2059.523 10284.137)">
      <path id="Path_471" data-name="Path 471" d="M2651.917,605.112c0-2.249-7.027-1.945-7.027-6.422,0-2.35,2.219-4.194,5.374-4.194a6.211,6.211,0,0,1,4.634,1.7l-2.067,2.289a3.626,3.626,0,0,0-2.85-1.317c-1.087,0-1.7.567-1.7,1.276,0,2.289,7.006,1.945,7.006,6.462,0,2.127-1.893,4.193-5.766,4.193a7.7,7.7,0,0,1-5.287-1.762l1.893-2.553a5.693,5.693,0,0,0,3.829,1.7c1.327,0,1.958-.628,1.958-1.377" transform="translate(-194.41 -209.24)" fill="#fff"/>
      <path id="Path_472" data-name="Path 472" d="M2706.165,609.531v-14.2h9.029v2.553h-5.722v3.16h4.917V603.6h-4.917v3.383h5.983v2.552Z" transform="translate(-241.267 -209.87)" fill="#fff"/>
      <path id="Path_473" data-name="Path 473" d="M2765.728,597.738c.152,1.418-.092,2.473-.092,4.924v5.368h-3.177v-14.2h3.981l3.111,5.591a38.917,38.917,0,0,1,2.154,4.355h.087c-.174-1.985-.174-3.95-.174-5.45v-4.5h3.155v14.2h-3.894l-3.351-6a39.107,39.107,0,0,1-2.023-4.335Z" transform="translate(-283.862 -208.735)" fill="#fff"/>
      <path id="Path_474" data-name="Path 474" d="M2839.267,605.112c0-2.249-7.027-1.945-7.027-6.422,0-2.35,2.219-4.194,5.374-4.194a6.211,6.211,0,0,1,4.634,1.7l-2.067,2.289a3.627,3.627,0,0,0-2.85-1.317c-1.088,0-1.7.567-1.7,1.276,0,2.289,7.006,1.945,7.006,6.462,0,2.127-1.893,4.193-5.766,4.193a7.7,7.7,0,0,1-5.287-1.762l1.893-2.553a5.693,5.693,0,0,0,3.829,1.7c1.327,0,1.958-.628,1.958-1.377" transform="translate(-336.167 -209.24)" fill="#fff"/>
      <path id="Path_475" data-name="Path 475" d="M2893.515,609.531v-14.2h9.029v2.553h-5.722v3.16h4.917V603.6h-4.917v3.383h5.983v2.552Z" transform="translate(-383.024 -209.87)" fill="#fff"/>
      <path id="Path_476" data-name="Path 476" d="M2394.035,605.045h.122l4.072-10.129h2.573v14.2h-1.56v-12.3h-.121c-1.155,2.755-3.039,7.5-4.193,10.251H2393.2l-4.173-10.251h-.121v12.3h-1.54v-14.2h2.593Z" transform="translate(-0.054 -209.557)" fill="#fff"/>
      <path id="Path_477" data-name="Path 477" d="M2470.859,608.69c-3.383,0-5.429-2.006-5.429-7.232,0-5.247,2.168-7.374,5.591-7.374,3.363,0,5.429,2.006,5.429,7.232,0,5.247-2.188,7.374-5.592,7.374m.1-1.459c2.35,0,3.829-1.377,3.829-5.774,0-4.436-1.519-5.915-3.889-5.915-2.31,0-3.809,1.357-3.809,5.774,0,4.436,1.52,5.915,3.87,5.915" transform="translate(-59.117 -208.927)" fill="#fff"/>
      <path id="Path_478" data-name="Path 478" d="M2530.374,596.354h-3.788v-1.438h9.177v1.438h-3.768v12.763h-1.621Z" transform="translate(-105.39 -209.557)" fill="#fff"/>
      <path id="Path_479" data-name="Path 479" d="M2580.638,608.69c-3.383,0-5.429-2.006-5.429-7.232,0-5.247,2.167-7.374,5.591-7.374,3.363,0,5.429,2.006,5.429,7.232,0,5.247-2.188,7.374-5.592,7.374m.1-1.459c2.35,0,3.829-1.377,3.829-5.774,0-4.436-1.519-5.915-3.889-5.915-2.309,0-3.809,1.357-3.809,5.774,0,4.436,1.52,5.915,3.87,5.915" transform="translate(-142.181 -208.927)" fill="#fff"/>
      <path id="Path_494" data-name="Path 494" d="M2647.694,386.686h-7.414l-6.19-2.957a1.372,1.372,0,0,0-1.46.179l-4.886,4.669-6.109-32.085a1,1,0,0,0-1.066-.667,1.025,1.025,0,0,0-1.064.657l-11.809,56.4-5.447-28.61a.955.955,0,0,0-.889-.657,1.226,1.226,0,0,0-1.14.416l-3.344,4.792-3.344-4.792a1.1,1.1,0,0,0-.79-.416,1.343,1.343,0,0,0-.934.215l-3.992,2.86H2555.3v1.4h32.876c.286,0,.646.062.848-.083l3.251-2.329,3.639,5.215a1.382,1.382,0,0,0,1.927,0l2.749-3.938,5.99,31.475a1.189,1.189,0,0,0,2.131.009l11.808-56.4,5.446,28.608a.923.923,0,0,0,.8.644,1.343,1.343,0,0,0,1.133-.285l5.849-5.588,5.614,2.681a1.4,1.4,0,0,0,.6.129h7.739c.595,0,1.077-.345,1.077-.771s-.482-.771-1.077-.771" transform="translate(-127.115 -28.651)" fill="#fff"/>
      <path id="Path_495" data-name="Path 495" d="M2388.026,482.655a.7.7,0,1,0,0,1.4h19.492v-1.4Z" transform="translate(0 -124.616)" fill="#fff"/>
      <path id="Path_496" data-name="Path 496" d="M2503.978,468.25a2.723,2.723,0,0,0-2.72,2.72v20.042a2.72,2.72,0,1,0,5.44,0V470.97a2.723,2.723,0,0,0-2.72-2.72m1.26,22.762a1.26,1.26,0,1,1-2.52,0V470.97a1.26,1.26,0,0,1,2.52,0Z" transform="translate(-86.226 -113.716)" fill="#fff"/>
      <path id="Path_497" data-name="Path 497" d="M2463.072,323.955a3.172,3.172,0,0,0,1.7.492,3.186,3.186,0,0,0,2.278-.952,3.267,3.267,0,0,0,0-4.582,3.2,3.2,0,0,0-3.511-.708,3.256,3.256,0,0,0-1.494,4.716l-3.365,3.4a.733.733,0,0,0-.209.513v2.193h-4.088a.746.746,0,0,0-.433.139l-3.076,2.254a5.6,5.6,0,0,0-7.917,0l-3.078-2.254a.734.734,0,0,0-.431-.139h-4.088v-2.193a.734.734,0,0,0-.209-.513l-3.368-3.4a3.268,3.268,0,0,0-.448-4.008,3.2,3.2,0,0,0-4.556,0,3.267,3.267,0,0,0,0,4.582,3.2,3.2,0,0,0,3.974.462l3.147,3.178v1.893h-5.707a.73.73,0,1,0,0,1.46h11.017l2.032,1.487.82.6a5.213,5.213,0,0,0-.277.531,5.538,5.538,0,0,0-4.269,4.892,5.032,5.032,0,0,0-.024.509v1.82c0,.032,0,.061,0,.09a5.537,5.537,0,0,0,2.477,4.536l-.134.18-2.95,3.95a4.811,4.811,0,0,0-.939,2.859v6l1.46,0v-6.009a3.358,3.358,0,0,1,.65-1.988l3.057-4.091h11.6l3.057,4.1a3.3,3.3,0,0,1,.657,1.983v6.765a.732.732,0,0,0,.73.73.676.676,0,0,0,.073-.007l.068,0h.586v-3.823h0v-3.667a4.761,4.761,0,0,0-.949-2.862l-3.081-4.122a5.546,5.546,0,0,0,2.49-4.631v-1.82a5.54,5.54,0,0,0-4.3-5.4,5.816,5.816,0,0,0-.277-.531l2.852-2.088h11.017a.73.73,0,1,0,0-1.46h-5.707v-1.893Zm.458-4.015a1.736,1.736,0,0,1,2.48,0,1.8,1.8,0,0,1,0,2.529,1.742,1.742,0,0,1-2.48,0,1.805,1.805,0,0,1,0-2.529m-33.238,2.529a1.742,1.742,0,0,1-2.48,0,1.806,1.806,0,0,1,0-2.529,1.737,1.737,0,0,1,2.48,0,1.8,1.8,0,0,1,0,2.529m12.686,11.564a.656.656,0,0,0,.034-.1,4.243,4.243,0,0,1,.708-1.188,4.149,4.149,0,0,1,3.19-1.5,4.254,4.254,0,0,1,2.363,7.751,4.134,4.134,0,0,1-2.363.742,4.089,4.089,0,0,1-1.042-.139,4.193,4.193,0,0,1-1.36-.633,4.252,4.252,0,0,1-1.531-4.933m9.588,1.458a5.826,5.826,0,0,0-.046-.689,4.09,4.09,0,0,1,2.361,3.706v1.82a4.055,4.055,0,0,1-4.027,4.076h-7.88a4.04,4.04,0,0,1-3.862-2.93,4.143,4.143,0,0,1-.163-1.146v-1.82a4.091,4.091,0,0,1,2.356-3.706,5.35,5.35,0,0,0-.046.689,5.709,5.709,0,0,0,3.48,5.266,5.589,5.589,0,0,0,4.546-.088,5.72,5.72,0,0,0,3.283-5.179" transform="translate(-29.159)" fill="#fff"/>
      <path id="Path_498" data-name="Path 498" d="M2468.85,481.828a.73.73,0,0,1-.73.73.7.7,0,0,1-.072-.007c-.024,0-.043,0-.069,0h-.586v-1.877h1.457Z" transform="translate(-60.602 -123.119)" fill="#fff"/>
    </g>
  </g>
</svg>
