<svg xmlns="http://www.w3.org/2000/svg" width="141.778" height="91.754" viewBox="0 0 141.778 91.754">
  <g id="Palletsense" transform="translate(-309.953 -359.392)">
    <g id="Group_2674" data-name="Group 2674" transform="translate(371.861 380.352)">
      <g id="Group_2672" data-name="Group 2672">
        <path id="Path_245" data-name="Path 245" d="M562.908,448.405H552.133l-6.029-2.88a1.337,1.337,0,0,0-1.422.175l-4.759,4.547L533.974,419a.979.979,0,0,0-1.038-.65,1,1,0,0,0-1.036.64l-11.5,54.925-5.3-27.864a.931.931,0,0,0-.866-.64,1.2,1.2,0,0,0-1.111.4l-3.257,4.667-3.257-4.667a1.075,1.075,0,0,0-.77-.4,1.309,1.309,0,0,0-.909.21l-3.889,2.785H484.77a.681.681,0,0,0-.682.682h0a.681.681,0,0,0,.682.682h16.616c.278,0,.629.06.826-.081l3.167-2.269,3.544,5.079a1.346,1.346,0,0,0,1.876,0l2.677-3.835,5.834,30.654a1.158,1.158,0,0,0,2.076.009l11.5-54.925,5.3,27.862a.9.9,0,0,0,.774.627,1.309,1.309,0,0,0,1.1-.278l5.7-5.442,5.468,2.611a1.36,1.36,0,0,0,.582.126h11.093c.579,0,1.049-.336,1.049-.751S563.488,448.405,562.908,448.405Z" transform="translate(-484.088 -418.348)" fill="#fff"/>
      </g>
      <g id="Group_2673" data-name="Group 2673" transform="translate(1.026 56.41)">
        <path id="Path_246" data-name="Path 246" d="M494.455,587.8c0-2.19-6.844-1.894-6.844-6.254,0-2.289,2.161-4.084,5.233-4.084a6.05,6.05,0,0,1,4.514,1.657l-2.013,2.229a3.533,3.533,0,0,0-2.776-1.282c-1.059,0-1.653.552-1.653,1.243,0,2.229,6.823,1.894,6.823,6.294,0,2.072-1.844,4.084-5.615,4.084a7.494,7.494,0,0,1-5.149-1.716l1.843-2.486a5.545,5.545,0,0,0,3.729,1.657C493.84,589.144,494.455,588.533,494.455,587.8Z" transform="translate(-486.975 -577.306)" fill="#fff"/>
        <path id="Path_247" data-name="Path 247" d="M536.26,591.85V578.019h8.793v2.486H539.48v3.078h4.789v2.486H539.48v3.3h5.827v2.486Z" transform="translate(-518.738 -577.663)" fill="#fff"/>
        <path id="Path_248" data-name="Path 248" d="M584.973,580.826c.148,1.381-.09,2.408-.09,4.8v5.228H581.79V577.019h3.877l3.03,5.445a37.924,37.924,0,0,1,2.1,4.242h.085c-.169-1.934-.169-3.847-.169-5.308v-4.38h3.072V590.85H589.99l-3.263-5.84a38.021,38.021,0,0,1-1.971-4.222Z" transform="translate(-548.081 -577.019)" fill="#fff"/>
        <path id="Path_249" data-name="Path 249" d="M641.355,587.8c0-2.19-6.844-1.894-6.844-6.254,0-2.289,2.161-4.084,5.234-4.084a6.05,6.05,0,0,1,4.513,1.657l-2.013,2.229a3.533,3.533,0,0,0-2.776-1.282c-1.059,0-1.652.552-1.652,1.243,0,2.229,6.823,1.894,6.823,6.294,0,2.072-1.843,4.084-5.615,4.084a7.494,7.494,0,0,1-5.149-1.716l1.843-2.486a5.546,5.546,0,0,0,3.729,1.657C640.74,589.144,641.355,588.533,641.355,587.8Z" transform="translate(-581.649 -577.306)" fill="#fff"/>
        <path id="Path_250" data-name="Path 250" d="M683.16,591.85V578.019h8.793v2.486h-5.572v3.078h4.789v2.486h-4.789v3.3h5.827v2.486Z" transform="translate(-613.412 -577.663)" fill="#fff"/>
      </g>
    </g>
    <g id="Group_2675" data-name="Group 2675" transform="translate(309.953 437.037)">
      <path id="Path_251" data-name="Path 251" d="M318.417,581.757c0,2.762-1.6,4.4-4.774,4.4h-2.111v5.465h-1.578V577.791h3.985C316.681,577.791,318.417,578.975,318.417,581.757Zm-6.886-2.565v5.584h2.111c2.288,0,3.137-1.007,3.137-2.841,0-1.973-1.1-2.742-3.2-2.742Z" transform="translate(-309.953 -577.791)" fill="#fff"/>
      <path id="Path_252" data-name="Path 252" d="M342.022,577.791l4.478,13.831h-1.657l-1.282-4.025H338l-1.282,4.025H335.1l4.479-13.831Zm-3.571,8.405h4.656l-1.48-4.657c-.1-.394-.75-2.407-.809-2.664h-.079c-.039.237-.69,2.249-.789,2.624Z" transform="translate(-326.158 -577.791)" fill="#fff"/>
      <path id="Path_253" data-name="Path 253" d="M374.414,577.791v12.43h5.939v1.4h-7.517V577.791Z" transform="translate(-350.48 -577.791)" fill="#fff"/>
      <path id="Path_254" data-name="Path 254" d="M401.664,577.791v12.43H407.6v1.4h-7.517V577.791Z" transform="translate(-368.042 -577.791)" fill="#fff"/>
      <path id="Path_255" data-name="Path 255" d="M427.336,591.622V577.791h7.34v1.4h-5.761v4.716h5.071v1.4h-5.071v4.913h6.037v1.4Z" transform="translate(-385.604 -577.791)" fill="#fff"/>
      <path id="Path_256" data-name="Path 256" d="M455.724,579.192h-3.69v-1.4h8.937v1.4H457.3v12.43h-1.578Z" transform="translate(-401.521 -577.791)" fill="#fff"/>
    </g>
    <path id="Path_257" data-name="Path 257" d="M375.526,418.446h-2.4v-7.185a.636.636,0,0,0-.636-.636h0a.636.636,0,0,0-.636.636v7.056h-28.19v-28.19h9.52v7.241a.636.636,0,0,0,.854.6l3.721-1.353,3.721,1.353a.628.628,0,0,0,.217.038.636.636,0,0,0,.636-.636v-7.241h9.52v13.106a.636.636,0,0,0,.636.636h0a.636.636,0,0,0,.636-.636V389.491a.637.637,0,0,0-.636-.637H358.4V360.028a.636.636,0,0,0-.636-.636H328.3a.636.636,0,0,0-.636.636v28.826H313.569a.639.639,0,0,0-.637.637v28.955h-2.4a.584.584,0,0,0-.584.584V423.7a.584.584,0,0,0,.584.584H317.7v6.089a.584.584,0,0,0,.584.584h6.673a.584.584,0,0,0,.584-.584v-6.089h13.574v6.089a.584.584,0,0,0,.585.584h6.673a.584.584,0,0,0,.584-.584v-6.089h13.574v6.089a.584.584,0,0,0,.584.584h6.673a.584.584,0,0,0,.584-.584v-6.089h7.158a.584.584,0,0,0,.584-.584v-4.672A.584.584,0,0,0,375.526,418.446Zm-14.461-28.319v6.332l-3.084-1.122a.637.637,0,0,0-.436,0l-3.085,1.122v-6.332ZM339.73,360.665h6.6V367l-3.085-1.122a.636.636,0,0,0-.435,0L339.73,367Zm-10.793,0h9.52v7.241a.636.636,0,0,0,.854.6l3.721-1.353,3.72,1.353a.643.643,0,0,0,.219.038.637.637,0,0,0,.636-.636v-7.241h9.52v28.19h-28.19ZM325,390.128h6.6v6.332l-3.085-1.122a.644.644,0,0,0-.218-.038.627.627,0,0,0-.217.038L325,396.46Zm-10.793,0h9.52v7.241a.637.637,0,0,0,.636.636.629.629,0,0,0,.217-.038l3.721-1.353,3.721,1.353a.628.628,0,0,0,.217.038.636.636,0,0,0,.637-.636v-7.241h9.52v28.19h-28.19Zm10.163,39.664h-5.5v-5.5h5.5Zm21.416,0h-5.5v-5.5h5.5Zm21.416,0h-5.5v-5.5h5.5Zm7.742-6.673h-63.82v-3.5h63.82Z" fill="#fff"/>
  </g>
</svg>
