<svg xmlns="http://www.w3.org/2000/svg" xmlns:xlink="http://www.w3.org/1999/xlink" width="191" height="97" viewBox="0 0 191 97">
  <defs>
    <clipPath id="clip-path">
      <rect id="Rectangle_76" data-name="Rectangle 76" width="191" height="97" transform="translate(4991 10587)" fill="red" opacity="0.748"/>
    </clipPath>
  </defs>
  <g id="Mask_Group_13" data-name="Mask Group 13" transform="translate(-4991 -10587)" clip-path="url(#clip-path)">
    <g id="Trucksense" transform="translate(4714.2 10222.13)">
      <g id="Group_2677" data-name="Group 2677" transform="translate(297.894 447.077)">
        <path id="Path_258" data-name="Path 258" d="M301.853,550h-3.8v-1.441h9.2V550h-3.776v12.789h-1.624Z" transform="translate(-298.057 -548.352)" fill="#fff"/>
        <path id="Path_259" data-name="Path 259" d="M336.653,548.555c2.964,0,4.75,1.157,4.75,4a3.63,3.63,0,0,1-3.207,3.877v.081a4.051,4.051,0,0,1,1.725,1.827l2.619,4.445h-1.928l-2.578-4.547a2.336,2.336,0,0,0-2.213-1.36H334.7v5.907H333.08v-14.23Zm-1.949,6.922h1.827c1.969,0,3.207-.771,3.207-2.74,0-1.989-1.157-2.74-3.309-2.74H334.7Z" transform="translate(-320.269 -548.352)" fill="#fff"/>
        <path id="Path_260" data-name="Path 260" d="M375.976,558.035v-9.48H377.6v9.277c0,3.431-1.989,5.156-5.176,5.156-3.207,0-4.933-1.847-4.933-4.912v-9.521h1.624v9.277c0,2.558,1.36,3.695,3.491,3.695C374.678,561.527,375.976,560.572,375.976,558.035Z" transform="translate(-342.093 -548.352)" fill="#fff"/>
        <path id="Path_261" data-name="Path 261" d="M409.392,548a5.544,5.544,0,0,1,3.776,1.177l-1.015,1.238a4.221,4.221,0,0,0-2.923-.954c-2.477,0-4,1.807-4,5.826,0,3.857,1.442,5.866,4.162,5.866a3.815,3.815,0,0,0,2.781-.873l.893,1.157a5.526,5.526,0,0,1-3.9,1.2c-3.918,0-5.6-2.822-5.6-7.206C403.566,550.761,405.6,548,409.392,548Z" transform="translate(-364.973 -548)" fill="#fff"/>
        <path id="Path_262" data-name="Path 262" d="M440.6,562.785h-1.624v-14.23H440.6Zm5.542-14.23h1.888l-5.055,7.1,5.521,7.125h-2.07l-5.3-7.044v-.081Z" transform="translate(-387.431 -548.352)" fill="#fff"/>
      </g>
      <g id="Group_2680" data-name="Group 2680" transform="translate(364.038 388.87)">
        <g id="Group_2678" data-name="Group 2678" transform="translate(0.773 0)">
          <path id="Path_263" data-name="Path 263" d="M560.267,419.795H549.18l-6.2-2.962a1.375,1.375,0,0,0-1.463.18l-4.9,4.678L530.5,389.54a1.007,1.007,0,0,0-1.069-.669,1.027,1.027,0,0,0-1.066.658l-11.833,56.51-5.457-28.668a.958.958,0,0,0-.891-.658,1.229,1.229,0,0,0-1.142.417l-3.351,4.8-3.351-4.8a1.106,1.106,0,0,0-.792-.417,1.345,1.345,0,0,0-.936.216l-4,2.866H481.7a.7.7,0,0,0-.7.7h0a.7.7,0,0,0,.7.7h15.267c.286,0,.647.063.85-.083l3.258-2.334,3.647,5.226a1.385,1.385,0,0,0,1.931,0l2.754-3.945,6,31.539a1.192,1.192,0,0,0,2.135.009L529.378,395.1l5.457,28.667a.925.925,0,0,0,.8.645,1.347,1.347,0,0,0,1.136-.285l5.861-5.6,5.626,2.686a1.406,1.406,0,0,0,.6.13h11.413c.6,0,1.079-.346,1.079-.773S560.863,419.795,560.267,419.795Z" transform="translate(-481 -388.87)" fill="#fff"/>
        </g>
        <g id="Group_2679" data-name="Group 2679" transform="translate(0 58.039)">
          <path id="Path_264" data-name="Path 264" d="M486.583,558.623c0-2.253-7.042-1.948-7.042-6.435,0-2.355,2.224-4.2,5.385-4.2a6.225,6.225,0,0,1,4.644,1.705l-2.071,2.294a3.634,3.634,0,0,0-2.856-1.32c-1.09,0-1.7.568-1.7,1.279,0,2.294,7.02,1.949,7.02,6.476,0,2.131-1.9,4.2-5.777,4.2a7.71,7.71,0,0,1-5.3-1.766l1.9-2.558a5.705,5.705,0,0,0,3.837,1.7C485.95,560,486.583,559.374,486.583,558.623Z" transform="translate(-478.887 -547.823)" fill="#fff"/>
          <path id="Path_265" data-name="Path 265" d="M528.172,562.771v-14.23h9.047V551.1h-5.734v3.167h4.927v2.558h-4.927v3.39h6v2.558Z" transform="translate(-510.144 -548.175)" fill="#fff"/>
          <path id="Path_266" data-name="Path 266" d="M576.977,551.457c.153,1.421-.092,2.478-.092,4.935v5.379H573.7v-14.23h3.989l3.118,5.6a39.029,39.029,0,0,1,2.158,4.364h.087c-.174-1.989-.174-3.958-.174-5.46v-4.507h3.161v14.23h-3.9l-3.358-6.009a39.134,39.134,0,0,1-2.027-4.344Z" transform="translate(-539.02 -547.541)" fill="#fff"/>
          <path id="Path_267" data-name="Path 267" d="M633.483,558.623c0-2.253-7.042-1.948-7.042-6.435,0-2.355,2.224-4.2,5.385-4.2a6.224,6.224,0,0,1,4.644,1.705l-2.071,2.294a3.633,3.633,0,0,0-2.856-1.32c-1.09,0-1.7.568-1.7,1.279,0,2.294,7.02,1.949,7.02,6.476,0,2.131-1.9,4.2-5.777,4.2a7.713,7.713,0,0,1-5.3-1.766l1.9-2.558a5.7,5.7,0,0,0,3.837,1.7C632.851,560,633.483,559.374,633.483,558.623Z" transform="translate(-572.054 -547.823)" fill="#fff"/>
          <path id="Path_268" data-name="Path 268" d="M675.072,562.771v-14.23h9.047V551.1h-5.734v3.167h4.927v2.558h-4.927v3.39h6v2.558Z" transform="translate(-603.311 -548.175)" fill="#fff"/>
        </g>
      </g>
      <g id="Group_2681" data-name="Group 2681" transform="translate(297.8 404.317)">
        <path id="Path_269" data-name="Path 269" d="M315.837,464.2H305.264c-1.771,0-3.645,2.03-5.275,5.716a25.308,25.308,0,0,0-2.189,7.976v5.067a.659.659,0,0,0,.658.658h7.122a.658.658,0,0,0,0-1.316h-6.464v-4.41a23.253,23.253,0,0,1,2.02-7.339c1.4-3.2,2.9-5.038,4.128-5.038h6.545v7.017l-9.819,2.021a.663.663,0,0,0-.518.547l-.231,1.527a.657.657,0,0,0,.554.748.6.6,0,0,0,.1.008.662.662,0,0,0,.649-.56l.162-1.073,9.9-2.037a.66.66,0,0,0,.525-.644v-7.553h2.055v14.221a.658.658,0,0,0,1.315,0V464.855A.658.658,0,0,0,315.837,464.2Z" transform="translate(-297.8 -452.091)" fill="#fff"/>
        <path id="Path_270" data-name="Path 270" d="M304.445,521.213h-5.987a.658.658,0,1,0,0,1.315h5.987a.658.658,0,0,0,0-1.315Z" transform="translate(-297.8 -488.251)" fill="#fff"/>
        <path id="Path_271" data-name="Path 271" d="M400.547,458.084H355.476V432.415h45.072v5.093a.658.658,0,0,0,.658.658h0a.658.658,0,0,0,.658-.658v-5.75a.657.657,0,0,0-.657-.658H354.818a.658.658,0,0,0-.658.658v26.984a.658.658,0,0,0,.658.658h46.387a.657.657,0,0,0,.657-.658V447.237a.658.658,0,0,0-.658-.658h0a.658.658,0,0,0-.658.658Z" transform="translate(-333.545 -431.1)" fill="#fff"/>
        <path id="Path_272" data-name="Path 272" d="M375.709,521.213H354.818a.658.658,0,1,0,0,1.315h20.891a.658.658,0,0,0,0-1.315Z" transform="translate(-333.545 -488.251)" fill="#fff"/>
        <path id="Path_273" data-name="Path 273" d="M454.876,521.213h-4.524a.658.658,0,0,0,0,1.315h4.524a.658.658,0,0,0,0-1.315Z" transform="translate(-394.135 -488.251)" fill="#fff"/>
        <path id="Path_274" data-name="Path 274" d="M328.127,513.394a4.5,4.5,0,1,0,4.5,4.5A4.51,4.51,0,0,0,328.127,513.394Zm0,7.694a3.189,3.189,0,1,1,3.189-3.19A3.193,3.193,0,0,1,328.127,521.088Z" transform="translate(-314.177 -483.292)" fill="#fff"/>
        <path id="Path_275" data-name="Path 275" d="M424.265,513.394a4.5,4.5,0,1,0,4.5,4.5A4.51,4.51,0,0,0,424.265,513.394Zm0,7.694a3.189,3.189,0,1,1,3.189-3.19A3.193,3.193,0,0,1,424.265,521.088Z" transform="translate(-375.149 -483.292)" fill="#fff"/>
      </g>
    </g>
  </g>
</svg>
