<svg xmlns="http://www.w3.org/2000/svg" width="182.669" height="80.505" viewBox="0 0 182.669 80.505">
  <g id="Yacht" transform="translate(-269.834 -329.135)">
    <path id="Path_314" data-name="Path 314" d="M363.315,352.036s-4.5-.673-13.653-2.151l-7.988-14.311L325.648,330.3l-11.4,13.666q-17.919-3.079-42.574-7.484c19.353,36.708,28.849,31.831,96.892,31.831Z" fill="none" stroke="#fff" stroke-width="2"/>
    <g id="Group_2701" data-name="Group 2701" transform="translate(363.827 336.648)">
      <path id="Path_315" data-name="Path 315" d="M524.152,380.018H541.38c.287,0,.648.063.852-.083L545.5,377.6l3.655,5.237a1.388,1.388,0,0,0,1.935,0l2.761-3.954,6.015,31.606a1.194,1.194,0,0,0,2.14.009l11.857-56.63,5.469,28.727a.927.927,0,0,0,.8.646,1.348,1.348,0,0,0,1.138-.286l5.874-5.611,5.638,2.692a1.4,1.4,0,0,0,.6.13h17.3c.6,0,1.081-.346,1.081-.774s-.484-.775-1.081-.775H593.7l-6.216-2.969a1.378,1.378,0,0,0-1.466.18l-4.906,4.688-6.134-32.218a1.009,1.009,0,0,0-1.071-.67,1.029,1.029,0,0,0-1.068.659l-11.858,56.63-5.469-28.729a.96.96,0,0,0-.893-.66,1.234,1.234,0,0,0-1.145.418l-3.358,4.812-3.358-4.812a1.111,1.111,0,0,0-.794-.418,1.35,1.35,0,0,0-.938.216l-4.009,2.872H524.165c-.6,0-1.082.346-1.082.775S523.554,380.018,524.152,380.018Z" transform="translate(-523.083 -347.623)" fill="#fff"/>
    </g>
    <g id="Group_2702" data-name="Group 2702" transform="translate(281.599 394.81)">
      <path id="Path_316" data-name="Path 316" d="M310.621,507.293l-5.069,9.113v5.147h-1.726v-5.147l-5.068-9.113h1.988l3.954,7.445h.087l3.954-7.445Z" transform="translate(-298.758 -506.926)" fill="#fff"/>
      <path id="Path_317" data-name="Path 317" d="M347.9,507.293l4.96,14.26h-1.835l-1.42-4.15h-6.161l-1.42,4.15h-1.792l4.96-14.26Zm-3.954,8.666h5.156l-1.638-4.8c-.109-.407-.83-2.482-.9-2.746h-.088c-.044.244-.765,2.319-.874,2.706Z" transform="translate(-325.032 -506.926)" fill="#fff"/>
      <path id="Path_318" data-name="Path 318" d="M395.732,506.738a6.247,6.247,0,0,1,4.063,1.18l-1.092,1.241a4.753,4.753,0,0,0-3.146-.956c-2.665,0-4.3,1.81-4.3,5.839,0,3.865,1.551,5.879,4.479,5.879a4.3,4.3,0,0,0,2.993-.875l.961,1.16a6.234,6.234,0,0,1-4.195,1.2c-4.216,0-6.03-2.828-6.03-7.222C389.462,509.5,391.647,506.738,395.732,506.738Z" transform="translate(-356.214 -506.575)" fill="#fff"/>
      <path id="Path_319" data-name="Path 319" d="M448.1,507.293v14.26h-1.748v-6.489h-7.406v6.489H437.2v-14.26h1.748v6.327h7.406v-6.327Z" transform="translate(-386.451 -506.926)" fill="#fff"/>
      <path id="Path_320" data-name="Path 320" d="M489.2,508.738h-4.085v-1.445h9.9v1.445h-4.064v12.815H489.2Z" transform="translate(-416.802 -506.926)" fill="#fff"/>
      <path id="Path_321" data-name="Path 321" d="M533.943,517.4c0-2.258-7.057-1.953-7.057-6.448,0-2.36,2.228-4.211,5.4-4.211a6.239,6.239,0,0,1,4.654,1.709l-2.076,2.3A3.641,3.641,0,0,0,532,509.423c-1.092,0-1.7.57-1.7,1.281,0,2.3,7.035,1.953,7.035,6.489,0,2.136-1.9,4.211-5.79,4.211a7.728,7.728,0,0,1-5.309-1.77l1.9-2.563a5.717,5.717,0,0,0,3.845,1.709C533.31,518.781,533.943,518.15,533.943,517.4Z" transform="translate(-442.849 -506.575)" fill="#fff"/>
      <path id="Path_322" data-name="Path 322" d="M575.517,521.553v-14.26h9.066v2.563h-5.746v3.173h4.938v2.563h-4.937v3.4h6.008v2.563Z" transform="translate(-474.069 -506.926)" fill="#fff"/>
      <path id="Path_323" data-name="Path 323" d="M624.329,510.218c.153,1.424-.093,2.483-.093,4.945v5.39h-3.189v-14.26h4l3.125,5.615a39.191,39.191,0,0,1,2.163,4.374h.087c-.174-1.993-.174-3.966-.174-5.472v-4.516h3.167v14.26H629.5l-3.364-6.021a39.223,39.223,0,0,1-2.032-4.354Z" transform="translate(-502.91 -506.293)" fill="#fff"/>
      <path id="Path_324" data-name="Path 324" d="M680.844,517.4c0-2.258-7.057-1.953-7.057-6.448,0-2.36,2.228-4.211,5.4-4.211a6.238,6.238,0,0,1,4.654,1.709l-2.075,2.3a3.643,3.643,0,0,0-2.862-1.322c-1.092,0-1.7.57-1.7,1.281,0,2.3,7.035,1.953,7.035,6.489,0,2.136-1.9,4.211-5.79,4.211a7.726,7.726,0,0,1-5.308-1.77l1.9-2.563a5.717,5.717,0,0,0,3.845,1.709C680.21,518.781,680.844,518.15,680.844,517.4Z" transform="translate(-535.903 -506.575)" fill="#fff"/>
      <path id="Path_325" data-name="Path 325" d="M722.417,521.553v-14.26h9.066v2.563h-5.745v3.173h4.937v2.563h-4.937v3.4h6.008v2.563Z" transform="translate(-567.122 -506.926)" fill="#fff"/>
    </g>
  </g>
</svg>
