<?xml version="1.0" standalone="no"?>
<!DOCTYPE svg PUBLIC "-//W3C//DTD SVG 20010904//EN"
 "http://www.w3.org/TR/2001/REC-SVG-20010904/DTD/svg10.dtd">
<svg version="1.0" xmlns="http://www.w3.org/2000/svg"
 width="512.000000pt" height="512.000000pt" viewBox="0 0 512.000000 512.000000"
 preserveAspectRatio="xMidYMid meet">
<metadata>
Created by potrace 1.14, written by Peter Selinger 2001-2017
</metadata>
<g transform="translate(0.000000,512.000000) scale(0.100000,-0.100000)"
fill="#C94000" stroke="none">
<path d="M0 2560 l0 -2560 2560 0 2560 0 0 2560 0 2560 -2560 0 -2560 0 0
-2560z m3063 1426 c8 -8 19 -41 25 -73 6 -32 68 -357 137 -723 69 -366 127
-668 128 -672 1 -4 55 43 120 104 80 75 125 111 141 111 13 0 84 -29 157 -64
l134 -64 222 -5 c194 -4 225 -7 240 -22 16 -17 16 -19 0 -35 -16 -16 -42 -18
-250 -18 l-232 0 -124 63 c-69 34 -128 61 -132 60 -4 -2 -69 -61 -144 -132
-139 -131 -168 -148 -200 -115 -7 8 -65 293 -129 634 -65 341 -121 631 -125
644 -6 21 -9 16 -19 -30 -33 -150 -522 -2493 -522 -2500 0 -15 -42 -31 -66
-25 -16 4 -26 17 -33 44 -6 20 -67 336 -136 702 -69 366 -129 675 -132 688 -5
20 -12 14 -59 -54 -72 -103 -83 -114 -114 -114 -32 0 -47 16 -135 145 -38 55
-69 101 -71 103 -1 2 -37 -22 -80 -52 l-79 -56 -420 2 c-406 3 -420 4 -423 22
-9 44 10 46 417 46 l386 0 90 64 c132 94 135 94 221 -31 105 -152 85 -150 175
-19 43 62 87 116 97 118 26 7 59 -8 66 -29 3 -10 57 -292 121 -628 125 -661
126 -665 131 -650 2 6 123 581 269 1280 146 698 271 1275 277 1282 14 17 53
17 71 -1z"/>
</g>
</svg>
