<svg xmlns="http://www.w3.org/2000/svg" width="1920.5" height="232.075" viewBox="0 0 1920.5 232.075">
  <g id="_404" data-name="404" transform="translate(0 -399.175)">
    <g id="Group_2734" data-name="Group 2734">
      <path id="Path_379" data-name="Path 379" d="M965.781,428.5h38.9c.648,0,1.464.141,1.923-.188l7.373-5.282,8.253,11.826c.828,1.183,3.538,1.183,4.369,0l6.233-8.928,13.583,71.371a2.7,2.7,0,0,0,4.832.021l26.775-127.881,12.349,64.871a2.094,2.094,0,0,0,1.8,1.459,3.047,3.047,0,0,0,2.57-.646l13.264-12.67,12.731,6.078a3.165,3.165,0,0,0,1.356.293h20.86c1.349,0,2.443-.782,2.443-1.749s-1.094-1.749-2.443-1.749h-20.123l-14.036-6.7a3.11,3.11,0,0,0-3.31.407l-11.08,10.586-13.852-72.754a2.278,2.278,0,0,0-2.417-1.513,2.324,2.324,0,0,0-2.413,1.489l-26.777,127.88L1036.6,419.844a2.166,2.166,0,0,0-2.017-1.489,2.785,2.785,0,0,0-2.586.943l-7.583,10.866-7.583-10.866a2.5,2.5,0,0,0-1.793-.943,3.044,3.044,0,0,0-2.118.489l-9.053,6.485h-38.06c-1.35,0-1.615.783-1.615,1.749S964.431,428.5,965.781,428.5Z" transform="translate(-964.194 113.652)" fill="#fff"/>
      <path id="Path_380" data-name="Path 380" d="M965.809,428.828l38.876-.327c.648,0,1.464.141,1.923-.188l7.373-5.282,8.253,11.826c.828,1.183,3.538,1.183,4.369,0l6.233-8.928,13.583,71.371a2.7,2.7,0,0,0,4.832.021l26.775-127.881,12.349,64.871a2.094,2.094,0,0,0,1.8,1.459,3.047,3.047,0,0,0,2.57-.646l13.264-12.67,12.731,6.078a3.165,3.165,0,0,0,1.356.293h20.86c1.349,0,2.443-.782,2.443-1.749s-1.341-1.716-2.69-1.716l-19.875-.034-14.036-6.7a3.11,3.11,0,0,0-3.31.407l-11.08,10.586-13.852-72.754a2.278,2.278,0,0,0-2.417-1.513,2.324,2.324,0,0,0-2.413,1.489l-26.777,127.88L1036.6,419.844a2.166,2.166,0,0,0-2.017-1.489,2.785,2.785,0,0,0-2.586.943l-7.583,10.866-7.583-10.866a2.5,2.5,0,0,0-1.793-.943,3.044,3.044,0,0,0-2.118.489l-9.053,6.485h-38.06c-1.35,0-1.615.783-1.615,1.749S964.459,428.828,965.809,428.828Z" transform="translate(-787.194 113.652)" fill="#fff"/>
      <path id="Path_381" data-name="Path 381" d="M976.557,419.818h21.928a7.945,7.945,0,0,0,2.575-1.05l6.409-4.591,7.173,10.279a2.723,2.723,0,0,0,3.8,0l5.418-7.76,11.807,62.035a2.343,2.343,0,0,0,4.2.018L1063.136,367.6l10.734,56.385a1.82,1.82,0,0,0,1.567,1.269,2.648,2.648,0,0,0,2.234-.562l11.529-11.013,11.066,5.283a2.75,2.75,0,0,0,1.179.255l17.863-.255c1.173,0,2.391-.425,2.391-1.265s-.509-.936-1.681-.936l-17.932-.585-12.2-5.827a2.7,2.7,0,0,0-2.877.353l-9.63,9.2-12.04-63.237a1.98,1.98,0,0,0-2.1-1.315,2.02,2.02,0,0,0-2.1,1.295l-23.274,111.151-10.734-56.388a1.883,1.883,0,0,0-1.753-1.295,2.42,2.42,0,0,0-2.247.819l-6.591,9.445-6.591-9.445a2.177,2.177,0,0,0-1.559-.819,2.646,2.646,0,0,0-1.841.425l-7.869,5.637-22.471.195c-1.173,0,0,1.207,0,2.047S975.383,419.818,976.557,419.818Z" transform="translate(-621.194 122.652)" fill="#fff"/>
      <path id="Path_382" data-name="Path 382" d="M967.582,403.242l22.9-.4c.421,0,.95.092,1.248-.122l4.787-3.429,5.358,7.677a2.034,2.034,0,0,0,2.836,0l4.047-5.8,8.819,46.335a1.75,1.75,0,0,0,3.137.014L1038.1,364.5l8.017,42.115a1.36,1.36,0,0,0,1.171.948,1.978,1.978,0,0,0,1.668-.42l8.611-8.225,9.624,3.25a26.863,26.863,0,0,0,3.2.165h8.694c.876,0,2.758.213,2.758-.414s-10.47-.534-11.346-.534c0,0-.1.157-3.3-.6s-9.113-4.352-9.113-4.352a2.019,2.019,0,0,0-2.149.264l-7.193,6.873-8.993-47.233a1.479,1.479,0,0,0-1.569-.982,1.509,1.509,0,0,0-1.566.967l-17.384,83.021-8.017-42.117a1.406,1.406,0,0,0-1.309-.967,1.808,1.808,0,0,0-1.679.612l-4.923,7.054-4.923-7.054a1.626,1.626,0,0,0-1.164-.612,1.976,1.976,0,0,0-1.375.317l-5.878,4.21-21.653-.434c-.876,0-1.334.2-1.334.824S966.705,403.242,967.582,403.242Z" transform="translate(-487.411 138.652)" fill="#fff"/>
      <path id="Path_383" data-name="Path 383" d="M964.635,375.693h10.82c.18,0,.407.039.535-.052l2.051-1.469,2.3,3.289a.871.871,0,0,0,1.215,0l1.734-2.483,3.778,19.849a.75.75,0,0,0,1.344.006l7.447-35.566,3.434,18.042a.583.583,0,0,0,.5.406.848.848,0,0,0,.715-.18l3.689-3.524,3.541,1.691a.88.88,0,0,0,.377.081h5.8c.375,0,.679-.217.679-.486s-.3-.487-.679-.487h-5.6l-3.9-1.865a.865.865,0,0,0-.92.113L1000.41,376l-3.853-20.234a.634.634,0,0,0-.672-.421.646.646,0,0,0-.671.414l-7.447,35.566-3.435-18.043a.6.6,0,0,0-.561-.414.775.775,0,0,0-.719.262l-2.109,3.022-2.109-3.022a.7.7,0,0,0-.5-.262.846.846,0,0,0-.589.136l-2.518,1.8H964.643c-.375,0-.449.218-.449.487S964.26,375.693,964.635,375.693Z" transform="translate(-135.686 162.803)" fill="#fff"/>
      <path id="Path_384" data-name="Path 384" d="M104.65-49.4V0h47.125V-49.4h23.833V-70.834c-.979,0-2.993-15.934-3.666-18.453l-.558-1.412-1.4,1.323-1.108,1.737A39.378,39.378,0,0,1,166-91.275c-.5,0-1.8,1.9-2.6,1.9H151.775v-135.2H96.2L8.924-89.375l-49.132,2.46,49.132-2.46,8.3,39.975Zm4.587-124.475-1.337,84.5H56.874l50.66-84.5ZM281.45,3.25c48.212,0,77.672-28.127,83.937-89.836.03-.3,1.213-17.206,1.213-25.864,0-78-23.4-115.375-80.275-115.375-55.25,0-84.825,36.075-84.825,117C201.5-34.125,223.925,3.25,281.45,3.25Zm-30.875-115.7c0-51.35,6.175-74.1,32.175-74.1,24.375,0,34.775,24.7,34.775,75.725,0,50.7-6.5,72.8-32.825,72.8C260.65-38.025,250.575-60.775,250.575-112.45ZM484.9-49.4V0h47.125V-49.4h29.9V-89.375h-29.9v-135.2H476.45L387.4-87.425,397.475-49.4Zm3.25-124.475-1.3,84.588-50.05-.088,26.325-42.575c8.45-13.65,16.9-28.6,23.725-41.925Z" transform="translate(676.5 627.5)" fill="none" stroke="#fff" stroke-width="1"/>
      <path id="Path_385" data-name="Path 385" d="M964.678,377.66h11.866c.2,0,.446.043.586-.057l2.249-1.611L981.9,379.6a.956.956,0,0,0,1.333,0l1.9-2.723,4.143,21.769a.822.822,0,0,0,1.474.006l8.167-39.005,3.767,19.787a.639.639,0,0,0,.55.445.929.929,0,0,0,.784-.2l4.046-3.865,3.883,1.854a.965.965,0,0,0,.414.089h7.164c.411,0,9.866-.518,9.866-.813s-10.256-.254-10.668-.254h-6.138l-4.281-2.045a.949.949,0,0,0-1.01.124l-3.38,3.229-4.225-22.191a.7.7,0,0,0-.737-.462.709.709,0,0,0-.736.454l-8.167,39.005-3.767-19.788a.661.661,0,0,0-.615-.454.849.849,0,0,0-.789.287l-2.313,3.314-2.313-3.314a.764.764,0,0,0-.547-.287.928.928,0,0,0-.646.149l-2.761,1.978H964.687c-.412,0-.493.239-.493.534S964.266,377.66,964.678,377.66Z" transform="translate(-381.686 163.342)" fill="#fff"/>
      <path id="Path_386" data-name="Path 386" d="M964.715,377.333H977.48c.213,0,.481.046.631-.062l2.419-1.733,2.708,3.88c.271.388.671.287.944-.1l2.261-3.175,1.3-1.978a.711.711,0,0,0-.447-.16.914.914,0,0,0-.848.309l-2.488,3.565-2.488-3.565a.823.823,0,0,0-.589-.309,1,1,0,0,0-.695.16l-2.971,2.128H964.724c-.443,0-.53.257-.53.574S964.272,377.333,964.715,377.333Z" transform="translate(78.314 163.495)" fill="#fff"/>
    </g>
    <path id="Path_387" data-name="Path 387" d="M964.9,378.518h17.292c.288,0,.651.063.855-.083l3.277-2.348,3.668,5.256c.368.526.909.388,1.278-.137l3.063-4.3,1.755-2.68a.964.964,0,0,0-.606-.217,1.237,1.237,0,0,0-1.149.419l-3.371,4.83-3.371-4.83a1.114,1.114,0,0,0-.8-.419,1.352,1.352,0,0,0-.941.217l-4.024,2.883H964.912c-.6,0-.718.348-.718.778S964.3,378.518,964.9,378.518Z" transform="translate(274.231 160.484)" fill="#fff"/>
    <path id="Path_388" data-name="Path 388" d="M-.213-.383,651,0" transform="translate(1269.5 535.5)" fill="none" stroke="#fff" stroke-width="1.1"/>
  </g>
</svg>
