<svg xmlns="http://www.w3.org/2000/svg" width="451.577" height="261.224" viewBox="0 0 451.577 261.224">
  <g id="Logo" transform="translate(-627.43 -325.618)">
    <g id="Group_28" data-name="Group 28" transform="translate(856.066 345.802)">
      <path id="Path_78" data-name="Path 78" d="M966.147,445.349h47.864c.8,0,1.8.174,2.365-.231l9.071-6.5,10.153,14.549c1.019,1.455,4.352,1.455,5.375,0l7.669-10.985,16.712,87.808c.2,1.068,1.454,1.815,2.974,1.858,1.486,0,2.753-.782,2.971-1.832l32.942-157.332,15.194,79.811a2.576,2.576,0,0,0,2.218,1.8,3.75,3.75,0,0,0,3.162-.795l16.318-15.588,15.663,7.478a3.893,3.893,0,0,0,1.668.361h25.664c1.66,0,3.005-.962,3.005-2.152s-1.345-2.152-3.005-2.152h-24.757L1142.1,433.2a3.827,3.827,0,0,0-4.073.5L1124.4,446.721l-17.042-89.51a2.8,2.8,0,0,0-2.974-1.861c-1.485,0-2.752.777-2.968,1.832l-32.944,157.331L1053.278,434.7a2.666,2.666,0,0,0-2.481-1.832,3.425,3.425,0,0,0-3.181,1.159l-9.33,13.369-9.33-13.369a3.081,3.081,0,0,0-2.206-1.159,3.745,3.745,0,0,0-2.605.6l-11.139,7.978H966.181c-1.66,0-1.987.963-1.987,2.152S964.486,445.349,966.147,445.349Z" transform="translate(-964.194 -355.348)" fill="#fff"/>
    </g>
    <g id="Group_29" data-name="Group 29" transform="translate(866.401 507.389)">
      <path id="Path_79" data-name="Path 79" d="M1000.842,623.635c0-6.274-19.6-5.425-19.6-17.915,0-6.556,6.191-11.7,14.991-11.7,7.1,0,11.532,3.052,12.929,4.748l-5.766,6.386a10.118,10.118,0,0,0-7.951-3.674c-3.034,0-4.734,1.582-4.734,3.56,0,6.387,19.544,5.426,19.544,18.029,0,5.934-5.281,11.7-16.085,11.7-8.194,0-13.292-3.39-14.749-4.917l5.281-7.12c1.82,1.7,5.522,4.747,10.682,4.747C999.083,627.478,1000.842,625.726,1000.842,623.635Z" transform="translate(-979.417 -593.567)" fill="#fff"/>
      <path id="Path_80" data-name="Path 80" d="M1047.345,634.471V594.853h25.188v7.121H1056.57v8.816h13.717v7.12H1056.57v9.439h16.691v7.12Z" transform="translate(-1001.227 -593.835)" fill="#fff"/>
      <path id="Path_81" data-name="Path 81" d="M1118.758,604.256c.424,3.957-.256,6.9-.256,13.738v14.976h-8.862V593.353h11.107l8.681,15.6a108.856,108.856,0,0,1,6.008,12.151h.243c-.486-5.539-.486-11.02-.486-15.2V593.353h8.8v39.618h-10.864l-9.347-16.729a108.834,108.834,0,0,1-5.644-12.094Z" transform="translate(-1021.229 -593.353)" fill="#fff"/>
      <path id="Path_82" data-name="Path 82" d="M1203.193,623.635c0-6.274-19.6-5.425-19.6-17.915,0-6.556,6.19-11.7,14.991-11.7,7.1,0,11.532,3.052,12.928,4.748l-5.766,6.386a10.118,10.118,0,0,0-7.951-3.674c-3.034,0-4.735,1.582-4.735,3.56,0,6.387,19.544,5.426,19.544,18.029,0,5.934-5.28,11.7-16.085,11.7-8.194,0-13.292-3.39-14.749-4.917l5.281-7.12c1.82,1.7,5.523,4.747,10.682,4.747C1201.433,627.478,1203.193,625.726,1203.193,623.635Z" transform="translate(-1044.388 -593.567)" fill="#fff"/>
      <path id="Path_83" data-name="Path 83" d="M1249.695,634.471V594.853h25.188v7.121H1258.92v8.816h13.717v7.12H1258.92v9.439h16.692v7.12Z" transform="translate(-1066.198 -593.835)" fill="#fff"/>
    </g>
    <g id="Group_30" data-name="Group 30" transform="translate(627.43 567.305)">
      <path id="Path_84" data-name="Path 84" d="M637.634,695.934h.187l6.234-13.2h3.939v18.507h-2.388V685.215h-.187c-1.767,3.59-4.652,9.768-6.421,13.359h-2.635l-6.389-13.359h-.186v16.026H627.43V682.734h3.97Z" transform="translate(-627.43 -681.968)" fill="#27073a"/>
      <path id="Path_85" data-name="Path 85" d="M683.941,682.734l7.04,18.507h-2.606l-2.015-5.386h-8.748l-2.015,5.386h-2.544l7.041-18.507Zm-5.614,11.247h7.319l-2.326-6.231c-.155-.528-1.179-3.221-1.272-3.564h-.123c-.062.316-1.086,3.01-1.241,3.511Z" transform="translate(-642.079 -681.968)" fill="#27073a"/>
      <path id="Path_86" data-name="Path 86" d="M717.232,701.241h-2.482V682.734h2.482Zm8.467-18.507h2.884l-7.723,9.24,8.436,9.267h-3.163l-8.1-9.162v-.105Z" transform="translate(-655.467 -681.968)" fill="#27073a"/>
      <path id="Path_87" data-name="Path 87" d="M751.79,701.241V682.734h11.538v1.874H754.27v6.31h7.972v1.875H754.27v6.573h9.491v1.875Z" transform="translate(-667.36 -681.968)" fill="#27073a"/>
      <path id="Path_88" data-name="Path 88" d="M791.955,682.734c4.529,0,7.258,1.505,7.258,5.2a5.031,5.031,0,0,1-4.9,5.043v.105a5.8,5.8,0,0,1,2.637,2.376l4,5.782H798l-3.939-5.915a3.681,3.681,0,0,0-3.381-1.768h-1.707v7.683H786.5V682.734Zm-2.978,9h2.792c3.008,0,4.9-1,4.9-3.565,0-2.587-1.767-3.564-5.055-3.564h-2.636Z" transform="translate(-678.503 -681.968)" fill="#27073a"/>
      <path id="Path_89" data-name="Path 89" d="M832.969,696.39c0-4.2-10.358-3.247-10.358-9.082,0-2.8,2.822-4.964,6.73-4.964a9.81,9.81,0,0,1,5.614,1.558l-1.519,1.637a7.24,7.24,0,0,0-4.249-1.267c-2.543,0-4.063,1.214-4.063,2.9,0,4.277,10.359,3.379,10.359,9.082,0,2.8-2.606,5.122-7.258,5.122a11.184,11.184,0,0,1-6.792-1.953l1.458-1.69a9.282,9.282,0,0,0,5.551,1.742C831.388,699.479,832.969,698.107,832.969,696.39Z" transform="translate(-689.72 -681.843)" fill="#27073a"/>
      <path id="Path_90" data-name="Path 90" d="M855.187,687.388c1.365-.5,2.3-1.268,2.3-2.165,0-.871-.621-1.346-1.769-1.849v-.184a1.7,1.7,0,0,1,1.892-1.585,2.162,2.162,0,0,1,2.266,2.349c0,2.3-2.141,3.988-3.909,4.489Z" transform="translate(-700.558 -681.606)" fill="#27073a"/>
    </g>
    <g id="Group_31" data-name="Group 31" transform="translate(819.412 567.807)">
      <path id="Path_91" data-name="Path 91" d="M910.206,682.734h2.482v18.507h-2.482Z" transform="translate(-910.206 -682.47)" fill="#27073a"/>
      <path id="Path_92" data-name="Path 92" d="M934.351,685.243c.062.4.092,4.25.092,4.91v11.089h-2.357V682.734h3.475l7.319,11.722c.217.37,2.325,3.776,2.512,4.172h.217c-.062-.555-.062-4.541-.062-4.964v-10.93h2.325v18.507H944.46l-7.381-11.8c-.217-.37-2.3-3.75-2.482-4.2Z" transform="translate(-917.231 -682.47)" fill="#27073a"/>
      <path id="Path_93" data-name="Path 93" d="M975.156,684.608h-5.8v-1.874h14.051v1.874h-5.768v16.633h-2.483Z" transform="translate(-929.198 -682.47)" fill="#27073a"/>
      <path id="Path_94" data-name="Path 94" d="M1004.029,701.241V682.734h11.536v1.874h-9.055v6.31h7.972v1.875h-7.972v6.573H1016v1.875Z" transform="translate(-940.331 -682.47)" fill="#27073a"/>
      <path id="Path_95" data-name="Path 95" d="M1039.717,682.734v16.632h9.334v1.875h-11.817V682.734Z" transform="translate(-950.992 -682.47)" fill="#27073a"/>
      <path id="Path_96" data-name="Path 96" d="M1071.281,682.734v16.632h9.334v1.875H1068.8V682.734Z" transform="translate(-961.127 -682.47)" fill="#27073a"/>
      <path id="Path_97" data-name="Path 97" d="M1100.82,682.734h2.481v18.507h-2.481Z" transform="translate(-971.408 -682.47)" fill="#27073a"/>
      <path id="Path_98" data-name="Path 98" d="M1136.467,683.929l-1.613,1.61a6.92,6.92,0,0,0-4.529-1.267c-3.162,0-6.637,1.426-6.637,7.472,0,5.57,2.326,7.788,6.575,7.788a8.554,8.554,0,0,0,3.815-.739v-7.076h2.482v8c-1.4.976-3.475,1.662-6.824,1.662-5.615,0-8.593-3.142-8.593-9.451,0-6.68,4.158-9.584,9.337-9.584C1134.078,682.345,1135.753,683.348,1136.467,683.929Z" transform="translate(-977.934 -682.345)" fill="#27073a"/>
      <path id="Path_99" data-name="Path 99" d="M1160.841,701.241V682.734h11.536v1.874h-9.056v6.31h7.972v1.875h-7.972v6.573h9.492v1.875Z" transform="translate(-990.68 -682.47)" fill="#27073a"/>
      <path id="Path_100" data-name="Path 100" d="M1196.356,685.243c.061.4.093,4.25.093,4.91v11.089h-2.356V682.734h3.472l7.32,11.722c.216.37,2.328,3.776,2.512,4.172h.219c-.064-.555-.064-4.541-.064-4.964v-10.93h2.328v18.507h-3.412l-7.383-11.8c-.216-.37-2.3-3.75-2.48-4.2Z" transform="translate(-1001.357 -682.47)" fill="#27073a"/>
      <path id="Path_101" data-name="Path 101" d="M1242.5,682.345a9.438,9.438,0,0,1,5.77,1.532l-1.551,1.61a7.186,7.186,0,0,0-4.465-1.24c-3.785,0-6.11,2.349-6.11,7.577,0,5.016,2.2,7.63,6.357,7.63a6.5,6.5,0,0,0,4.251-1.135l1.364,1.5c-.963.792-2.854,1.557-5.954,1.557-5.988,0-8.561-3.669-8.561-9.372C1233.6,685.936,1236.7,682.345,1242.5,682.345Z" transform="translate(-1014.042 -682.345)" fill="#27073a"/>
      <path id="Path_102" data-name="Path 102" d="M1270.235,701.241V682.734h11.538v1.874h-9.055v6.31h7.97v1.875h-7.97v6.573h9.489v1.875Z" transform="translate(-1025.804 -682.47)" fill="#27073a"/>
    </g>
    <path id="Path_103" data-name="Path 103" d="M627.43,634.744V595.126h20.911v4.013H632.008v14.582h14.355v4.012H632.008v17.011Z" transform="translate(0 -86.534)" fill="#fff"/>
    <path id="Path_104" data-name="Path 104" d="M685.4,595.126l12.829,39.618h-4.748l-3.673-11.529H673.876L670.2,634.744h-4.635l12.83-39.618ZM675.175,619.2h13.338l-4.239-13.337c-.282-1.131-2.147-6.9-2.317-7.629h-.226c-.113.678-1.978,6.442-2.261,7.516Z" transform="translate(-12.245 -86.534)" fill="#fff"/>
    <path id="Path_105" data-name="Path 105" d="M738.485,594.294c6.048,0,9.212,2.148,10.512,3.278l-2.825,3.447c-1.7-1.413-4.013-2.656-8.139-2.656-6.9,0-11.134,5.03-11.134,16.219,0,10.738,4.012,16.333,11.586,16.333,4.013,0,6.33-1.074,7.742-2.431l2.487,3.221c-1.751,1.7-5.2,3.334-10.851,3.334-10.908,0-15.6-7.855-15.6-20.063C722.265,601.981,727.917,594.294,738.485,594.294Z" transform="translate(-30.45 -86.267)" fill="#fff"/>
    <path id="Path_106" data-name="Path 106" d="M783.623,599.139H773.054v-4.013h25.6v4.013H788.144v35.605h-4.521Z" transform="translate(-46.757 -86.534)" fill="#fff"/>
    <path id="Path_107" data-name="Path 107" d="M835.325,635.042c-9.438,0-15.146-5.595-15.146-20.176,0-14.638,6.047-20.573,15.6-20.573,9.382,0,15.147,5.6,15.147,20.177C850.924,629.108,844.82,635.042,835.325,635.042Zm.282-4.068c6.556,0,10.682-3.844,10.682-16.107,0-12.377-4.239-16.5-10.851-16.5-6.443,0-10.625,3.786-10.625,16.107C824.813,626.848,829.052,630.974,835.607,630.974Z" transform="translate(-61.888 -86.267)" fill="#fff"/>
    <path id="Path_108" data-name="Path 108" d="M889.816,595.126c8.252,0,13.225,3.223,13.225,11.135,0,6.5-4.183,10.285-8.93,10.794v.226c1.583.735,3,2.035,4.8,5.086l7.291,12.377h-5.369l-7.177-12.66c-1.526-2.6-3.278-3.786-6.161-3.786h-3.108v16.446H879.87V595.126ZM884.391,614.4h5.086c5.482,0,8.93-2.148,8.93-7.63,0-5.538-3.221-7.63-9.212-7.63h-4.8Z" transform="translate(-81.054 -86.534)" fill="#fff"/>
    <path id="Path_109" data-name="Path 109" d="M952.6,595.126l-13.112,25.319v14.3h-4.465v-14.3l-13.112-25.319h5.143l10.229,20.686h.226l10.229-20.686Z" transform="translate(-94.553 -86.534)" fill="#fff"/>
    <g id="Group_36" data-name="Group 36" transform="translate(627.522 325.618)">
      <g id="Group_32" data-name="Group 32" transform="translate(111.436)">
        <path id="Path_110" data-name="Path 110" d="M793.86,411.889c-.052,0-.1,0-.156-.006a2.154,2.154,0,0,1-1.995-2.3l5.854-81.963a2.154,2.154,0,0,1,2.148-2h18.943a2.154,2.154,0,0,1,2.148,2l5.849,81.879a2.154,2.154,0,1,1-4.3.307l-5.707-79.879H801.718l-5.712,79.962A2.155,2.155,0,0,1,793.86,411.889Z" transform="translate(-791.704 -325.618)" fill="#fff"/>
      </g>
      <g id="Group_33" data-name="Group 33" transform="translate(13.399 24.884)">
        <path id="Path_111" data-name="Path 111" d="M733.679,424a2.154,2.154,0,0,1-2.154-2.154v-54.3a.968.968,0,0,0-.967-.967H652.577a.968.968,0,0,0-.967.967v54.3a2.154,2.154,0,0,1-4.308,0v-54.3a5.28,5.28,0,0,1,5.274-5.275h77.981a5.281,5.281,0,0,1,5.275,5.275v54.3A2.153,2.153,0,0,1,733.679,424Z" transform="translate(-647.302 -362.271)" fill="#fff"/>
      </g>
      <g id="Group_34" data-name="Group 34" transform="translate(165.013)">
        <path id="Path_112" data-name="Path 112" d="M872.775,412.158c-.052,0-.1,0-.156-.006a2.153,2.153,0,0,1-1.995-2.3l5.874-82.232a2.154,2.154,0,0,1,2.148-2h18.943a2.154,2.154,0,0,1,2.149,2l5.868,82.156a2.154,2.154,0,0,1-4.3.307l-5.725-80.156H880.652l-5.731,80.231A2.154,2.154,0,0,1,872.775,412.158Z" transform="translate(-870.619 -325.618)" fill="#fff"/>
      </g>
      <g id="Group_35" data-name="Group 35" transform="translate(0 82.309)">
        <path id="Path_113" data-name="Path 113" d="M857.5,474.649a2.154,2.154,0,0,1-2.154-2.154v-17.87a3.468,3.468,0,0,0-3.464-3.464H635.338a3.468,3.468,0,0,0-3.464,3.464v70.949a2.154,2.154,0,0,1-4.308,0V454.625a7.78,7.78,0,0,1,7.772-7.772H851.887a7.78,7.78,0,0,1,7.772,7.772V472.5A2.154,2.154,0,0,1,857.5,474.649Z" transform="translate(-627.566 -446.853)" fill="#fff"/>
      </g>
    </g>
  </g>
</svg>
