<svg xmlns="http://www.w3.org/2000/svg" width="123.951" height="61.253" viewBox="0 0 123.951 61.253">
  <g id="menu_logo" transform="translate(-627.43 -325.618)">
    <g id="Group_28" data-name="Group 28" transform="translate(690.187 331.158)">
      <path id="Path_78" data-name="Path 78" d="M964.73,380.052h13.138c.219,0,.494.048.649-.063l2.49-1.784,2.787,3.994a1.058,1.058,0,0,0,1.475,0l2.1-3.015,4.587,24.1a.91.91,0,0,0,1.632.007l9.042-43.185,4.17,21.907a.707.707,0,0,0,.609.493,1.03,1.03,0,0,0,.868-.218l4.479-4.279,4.3,2.053a1.07,1.07,0,0,0,.458.1h7.044c.456,0,.825-.264.825-.591s-.369-.591-.825-.591h-6.8l-4.74-2.264a1.051,1.051,0,0,0-1.118.137l-3.742,3.575-4.678-24.569a.769.769,0,0,0-.816-.511.785.785,0,0,0-.815.5l-9.043,43.185-4.17-21.908a.732.732,0,0,0-.681-.5.94.94,0,0,0-.873.318l-2.561,3.67-2.561-3.67a.846.846,0,0,0-.606-.318,1.028,1.028,0,0,0-.715.165l-3.057,2.19H964.739c-.456,0-.546.264-.546.591S964.274,380.052,964.73,380.052Z" transform="translate(-964.194 -355.348)" fill="#fff"/>
    </g>
    <g id="Group_29" data-name="Group 29" transform="translate(693.024 375.511)">
      <path id="Path_79" data-name="Path 79" d="M985.3,602.149c0-1.722-5.381-1.489-5.381-4.918,0-1.8,1.7-3.211,4.115-3.211a4.756,4.756,0,0,1,3.549,1.3L986,597.076a2.778,2.778,0,0,0-2.183-1.008c-.833,0-1.3.434-1.3.977,0,1.753,5.365,1.489,5.365,4.949,0,1.629-1.449,3.211-4.415,3.211a5.893,5.893,0,0,1-4.048-1.35l1.449-1.955a4.36,4.36,0,0,0,2.932,1.3C984.815,603.2,985.3,602.723,985.3,602.149Z" transform="translate(-979.417 -593.896)" fill="#fff"/>
      <path id="Path_80" data-name="Path 80" d="M1047.345,605.727V594.853h6.914v1.955h-4.381v2.42h3.765v1.954h-3.765v2.591h4.581v1.954Z" transform="translate(-1034.686 -594.573)" fill="#fff"/>
      <path id="Path_81" data-name="Path 81" d="M1112.143,596.346c.116,1.086-.07,1.894-.07,3.771v4.111h-2.432V593.353h3.048l2.383,4.282a29.87,29.87,0,0,1,1.649,3.335h.067c-.133-1.52-.133-3.025-.133-4.173v-3.444h2.416v10.874h-2.982l-2.566-4.592a29.825,29.825,0,0,1-1.549-3.32Z" transform="translate(-1085.373 -593.353)" fill="#fff"/>
      <path id="Path_82" data-name="Path 82" d="M1187.648,602.149c0-1.722-5.381-1.489-5.381-4.918,0-1.8,1.7-3.211,4.115-3.211a4.757,4.757,0,0,1,3.549,1.3l-1.583,1.753a2.777,2.777,0,0,0-2.182-1.008c-.833,0-1.3.434-1.3.977,0,1.753,5.365,1.489,5.365,4.949,0,1.629-1.449,3.211-4.415,3.211a5.893,5.893,0,0,1-4.048-1.35l1.45-1.955a4.359,4.359,0,0,0,2.932,1.3C1187.165,603.2,1187.648,602.723,1187.648,602.149Z" transform="translate(-1144.058 -593.896)" fill="#fff"/>
      <path id="Path_83" data-name="Path 83" d="M1249.695,605.727V594.853h6.914v1.955h-4.382v2.42h3.765v1.954h-3.765v2.591h4.582v1.954Z" transform="translate(-1199.328 -594.573)" fill="#fff"/>
    </g>
    <path id="Path_103" data-name="Path 103" d="M627.43,606V595.126h5.74v1.1h-4.483v4h3.94v1.1h-3.94V606Z" transform="translate(0 -219.284)" fill="#fff"/>
    <path id="Path_104" data-name="Path 104" d="M671.012,595.126,674.533,606h-1.3l-1.008-3.165h-4.375L666.839,606h-1.272l3.522-10.875Zm-2.808,6.609h3.661l-1.164-3.661c-.077-.31-.589-1.893-.636-2.094H670c-.031.186-.543,1.768-.621,2.063Z" transform="translate(-31.03 -219.284)" fill="#fff"/>
    <path id="Path_105" data-name="Path 105" d="M726.717,594.294a4.237,4.237,0,0,1,2.885.9l-.775.946a3.226,3.226,0,0,0-2.234-.729c-1.893,0-3.056,1.381-3.056,4.452,0,2.948,1.1,4.483,3.18,4.483a2.914,2.914,0,0,0,2.125-.667l.683.884a4.223,4.223,0,0,1-2.978.915c-2.994,0-4.281-2.156-4.281-5.507C722.265,596.4,723.816,594.294,726.717,594.294Z" transform="translate(-77.162 -218.608)" fill="#fff"/>
    <path id="Path_106" data-name="Path 106" d="M775.955,596.228h-2.9v-1.1h7.027v1.1H777.2V606h-1.241Z" transform="translate(-118.486 -219.284)" fill="#fff"/>
    <path id="Path_107" data-name="Path 107" d="M824.336,605.479c-2.591,0-4.157-1.536-4.157-5.538,0-4.018,1.66-5.647,4.281-5.647,2.575,0,4.158,1.536,4.158,5.538C828.618,603.85,826.943,605.479,824.336,605.479Zm.077-1.117c1.8,0,2.932-1.055,2.932-4.421,0-3.4-1.164-4.53-2.978-4.53-1.768,0-2.917,1.039-2.917,4.421C821.451,603.229,822.615,604.362,824.414,604.362Z" transform="translate(-156.83 -218.608)" fill="#fff"/>
    <path id="Path_108" data-name="Path 108" d="M882.6,595.126c2.265,0,3.63.885,3.63,3.056a2.774,2.774,0,0,1-2.451,2.963v.062a3.1,3.1,0,0,1,1.319,1.4l2,3.4h-1.474l-1.97-3.475a1.786,1.786,0,0,0-1.691-1.039h-.853V606H879.87V595.126Zm-1.489,5.29h1.4c1.5,0,2.451-.59,2.451-2.094,0-1.52-.884-2.094-2.529-2.094h-1.319Z" transform="translate(-205.397 -219.284)" fill="#fff"/>
    <path id="Path_109" data-name="Path 109" d="M930.338,595.126l-3.6,6.95V606h-1.225v-3.925l-3.6-6.95h1.412l2.808,5.678h.062L929,595.126Z" transform="translate(-239.606 -219.284)" fill="#fff"/>
    <g id="Group_36" data-name="Group 36" transform="translate(627.455 325.618)">
      <g id="Group_32" data-name="Group 32" transform="translate(30.588)">
        <path id="Path_110" data-name="Path 110" d="M792.3,349.3l-.043,0a.591.591,0,0,1-.547-.632l1.607-22.5a.591.591,0,0,1,.59-.549h5.2a.591.591,0,0,1,.59.549l1.605,22.475a.591.591,0,1,1-1.179.084L798.551,326.8h-4.1l-1.568,21.948A.591.591,0,0,1,792.3,349.3Z" transform="translate(-791.704 -325.618)" fill="#fff"/>
      </g>
      <g id="Group_33" data-name="Group 33" transform="translate(3.678 6.83)">
        <path id="Path_111" data-name="Path 111" d="M671.011,379.215a.591.591,0,0,1-.591-.591V363.719a.266.266,0,0,0-.265-.265h-21.4a.266.266,0,0,0-.265.265v14.906a.591.591,0,0,1-1.182,0V363.719a1.449,1.449,0,0,1,1.448-1.448h21.4a1.449,1.449,0,0,1,1.448,1.448v14.906A.591.591,0,0,1,671.011,379.215Z" transform="translate(-647.302 -362.271)" fill="#fff"/>
      </g>
      <g id="Group_34" data-name="Group 34" transform="translate(45.294)">
        <path id="Path_112" data-name="Path 112" d="M871.211,349.372l-.043,0a.591.591,0,0,1-.547-.632l1.612-22.571a.591.591,0,0,1,.59-.549h5.2a.591.591,0,0,1,.59.549l1.611,22.551a.591.591,0,0,1-1.179.084l-1.571-22h-4.1L871.8,348.823A.591.591,0,0,1,871.211,349.372Z" transform="translate(-870.619 -325.618)" fill="#fff"/>
      </g>
      <g id="Group_35" data-name="Group 35" transform="translate(0 22.592)">
        <path id="Path_113" data-name="Path 113" d="M690.68,454.483a.591.591,0,0,1-.591-.591v-4.905a.952.952,0,0,0-.951-.951H629.7a.952.952,0,0,0-.951.951v19.474a.591.591,0,0,1-1.182,0V448.986a2.136,2.136,0,0,1,2.133-2.133h59.439a2.136,2.136,0,0,1,2.133,2.133v4.905A.591.591,0,0,1,690.68,454.483Z" transform="translate(-627.566 -446.853)" fill="#fff"/>
      </g>
    </g>
  </g>
</svg>
