<svg xmlns="http://www.w3.org/2000/svg" xmlns:xlink="http://www.w3.org/1999/xlink" width="428" height="137" viewBox="0 0 428 137">
  <defs>
    <clipPath id="clip-path">
      <rect id="Rectangle_51" data-name="Rectangle 51" width="428" height="137" transform="translate(0 334)" fill="#fff" stroke="#707070" stroke-width="1"/>
    </clipPath>
  </defs>
  <g id="_404_mobile" data-name="404 mobile" transform="translate(0 -334)" clip-path="url(#clip-path)">
    <g id="_404" data-name="404" transform="translate(-220.489 -49.675)">
      <g id="Group_2734" data-name="Group 2734" transform="translate(0 399.675)">
        <path id="Path_379" data-name="Path 379" d="M964.912,388.448h17.6c.293,0,.662.064.87-.085l3.336-2.39,3.734,5.351a1.418,1.418,0,0,0,1.977,0l2.82-4.04,6.146,32.294a1.22,1.22,0,0,0,2.186.01l12.115-57.863,5.588,29.353a.948.948,0,0,0,.816.66,1.379,1.379,0,0,0,1.163-.292l6-5.733,5.76,2.75a1.432,1.432,0,0,0,.614.133h9.439c.61,0,1.105-.354,1.105-.791s-.495-.792-1.105-.792h-9.1l-6.351-3.033a1.407,1.407,0,0,0-1.5.184l-5.013,4.79-6.268-32.92a1.031,1.031,0,0,0-1.094-.685,1.051,1.051,0,0,0-1.092.674l-12.116,57.862-5.588-29.354a.98.98,0,0,0-.912-.674,1.26,1.26,0,0,0-1.17.426l-3.431,4.917-3.431-4.917a1.133,1.133,0,0,0-.811-.426,1.377,1.377,0,0,0-.958.221l-4.1,2.934H964.925c-.611,0-.731.354-.731.792S964.3,388.448,964.912,388.448Z" transform="translate(-964.194 -323.98)" fill="#fff"/>
        <path id="Path_380" data-name="Path 380" d="M964.925,388.6l17.59-.148c.293,0,.662.064.87-.085l3.336-2.39,3.734,5.351a1.418,1.418,0,0,0,1.977,0l2.82-4.04,6.146,32.294a1.22,1.22,0,0,0,2.186.01l12.115-57.863,5.588,29.353a.948.948,0,0,0,.816.66,1.379,1.379,0,0,0,1.163-.292l6-5.733,5.76,2.75a1.432,1.432,0,0,0,.614.133h9.439c.61,0,1.105-.354,1.105-.791s-.607-.776-1.217-.776l-8.993-.015-6.351-3.033a1.407,1.407,0,0,0-1.5.184l-5.013,4.79-6.268-32.92a1.031,1.031,0,0,0-1.094-.685,1.051,1.051,0,0,0-1.092.674l-12.116,57.862-5.588-29.354a.98.98,0,0,0-.912-.674,1.26,1.26,0,0,0-1.17.426l-3.431,4.917-3.431-4.917a1.133,1.133,0,0,0-.811-.426,1.377,1.377,0,0,0-.958.221l-4.1,2.934H964.925c-.611,0-.731.354-.731.792S964.314,388.6,964.925,388.6Z" transform="translate(-884.106 -323.98)" fill="#fff"/>
        <path id="Path_381" data-name="Path 381" d="M976.081,384.519H986a3.6,3.6,0,0,0,1.165-.475l2.9-2.077,3.246,4.651a1.232,1.232,0,0,0,1.718,0l2.451-3.511,5.342,28.069a1.06,1.06,0,0,0,1.9.008l10.53-50.294,4.857,25.513a.824.824,0,0,0,.709.574,1.2,1.2,0,0,0,1.011-.254l5.216-4.983,5.007,2.391a1.245,1.245,0,0,0,.533.115l8.083-.115c.531,0,1.082-.192,1.082-.572s-.23-.423-.761-.423l-8.114-.265-5.52-2.637a1.223,1.223,0,0,0-1.3.16l-4.358,4.163-5.448-28.613a.9.9,0,0,0-.951-.6.914.914,0,0,0-.949.586l-10.531,50.293-4.857-25.514a.852.852,0,0,0-.793-.586,1.1,1.1,0,0,0-1.017.371l-2.982,4.273-2.982-4.273a.985.985,0,0,0-.705-.371,1.2,1.2,0,0,0-.833.192l-3.561,2.55-10.167.088c-.531,0,0,.546,0,.926S975.55,384.519,976.081,384.519Z" transform="translate(-815.288 -319.908)" fill="#fff"/>
        <path id="Path_382" data-name="Path 382" d="M967.224,377.019l10.362-.182c.19,0,.43.042.565-.055l2.166-1.552,2.424,3.474a.92.92,0,0,0,1.283,0l1.831-2.623,3.99,20.965a.792.792,0,0,0,1.419.006l7.865-37.565,3.628,19.056a.615.615,0,0,0,.53.429.9.9,0,0,0,.755-.19l3.9-3.722,4.355,1.471a12.159,12.159,0,0,0,1.447.075h3.934c.4,0,1.248.1,1.248-.187s-4.738-.242-5.134-.242c0,0-.045.071-1.495-.272a20.869,20.869,0,0,1-4.123-1.969.914.914,0,0,0-.972.119l-3.255,3.11-4.069-21.372a.669.669,0,0,0-.71-.444.683.683,0,0,0-.709.438l-7.866,37.565-3.628-19.057a.636.636,0,0,0-.592-.437.818.818,0,0,0-.76.277l-2.228,3.192-2.228-3.192a.736.736,0,0,0-.527-.277.894.894,0,0,0-.622.143l-2.659,1.9-9.8-.2c-.4,0-.6.089-.6.373S966.828,377.019,967.224,377.019Z" transform="translate(-749.959 -312.668)" fill="#fff"/>
        <path id="Path_383" data-name="Path 383" d="M964.394,364.553h4.9c.082,0,.184.018.242-.024l.928-.665,1.039,1.488a.394.394,0,0,0,.55,0l.784-1.124,1.709,8.981a.339.339,0,0,0,.608,0l3.37-16.093,1.554,8.163a.264.264,0,0,0,.227.184.384.384,0,0,0,.323-.081l1.669-1.594,1.6.765a.4.4,0,0,0,.171.037h2.625c.17,0,.307-.1.307-.22s-.138-.22-.307-.22h-2.532l-1.766-.844a.391.391,0,0,0-.417.051l-1.394,1.332-1.743-9.155a.287.287,0,0,0-.3-.19.292.292,0,0,0-.3.187l-3.37,16.093-1.554-8.164a.273.273,0,0,0-.254-.187.351.351,0,0,0-.325.119l-.954,1.367-.954-1.367a.315.315,0,0,0-.226-.119.383.383,0,0,0-.266.061l-1.139.816H964.4c-.17,0-.2.1-.2.22S964.224,364.553,964.394,364.553Z" transform="translate(-589.315 -301.741)" fill="#fff"/>
        <path id="Path_384" data-name="Path 384" d="M25.337-147.092v22.352H46.66v-22.352H57.443v-9.7c-.443,0-1.354-7.21-1.659-8.349l-.253-.639-.633.6-.5.786a17.817,17.817,0,0,1-1.3-1.646c-.227,0-.814.86-1.176.86H46.66v-61.175H21.513l-39.49,61.175-22.231,1.113,22.231-1.113,3.756,18.088Zm2.075-56.322-.6,38.234H3.719l22.922-38.234Zm77.922,80.145c21.815,0,35.145-12.727,37.979-40.649.014-.135.549-7.785.549-11.7,0-35.293-10.588-52.2-36.322-52.2-25,0-38.381,16.323-38.381,52.94C69.159-140.181,79.306-123.269,105.334-123.269Zm-13.97-52.351c0-23.235,2.794-33.528,14.558-33.528,11.029,0,15.735,11.176,15.735,34.264,0,22.94-2.941,32.94-14.853,32.94C95.923-141.945,91.364-152.239,91.364-175.621ZM197.39-147.092v22.352h21.323v-22.352h13.529V-165.18H218.713v-61.175H193.567L153.274-164.3l4.559,17.205Zm1.471-56.322-.588,38.274-22.646-.04,11.911-19.264c3.823-6.176,7.647-12.941,10.735-18.97Z" transform="translate(328.114 227.825)" fill="none" stroke="#fff" stroke-width="1"/>
        <path id="Path_385" data-name="Path 385" d="M964.413,365.444h5.369c.089,0,.2.02.265-.026l1.018-.729,1.139,1.632a.433.433,0,0,0,.6,0l.86-1.232,1.875,9.85a.372.372,0,0,0,.667,0l3.7-17.649,1.7,8.953a.289.289,0,0,0,.249.2.421.421,0,0,0,.355-.089l1.831-1.749,1.757.839a.437.437,0,0,0,.187.04h3.242c.186,0,4.464-.235,4.464-.368s-4.641-.115-4.827-.115h-2.777l-1.937-.925a.429.429,0,0,0-.457.056l-1.529,1.461-1.912-10.041a.314.314,0,0,0-.334-.209.321.321,0,0,0-.333.206l-3.7,17.649-1.7-8.953a.3.3,0,0,0-.278-.206.384.384,0,0,0-.357.13l-1.047,1.5-1.047-1.5a.346.346,0,0,0-.248-.13.42.42,0,0,0-.292.067l-1.249.9h-5.253c-.186,0-.223.108-.223.241S964.227,365.444,964.413,365.444Z" transform="translate(-700.624 -301.496)" fill="#fff"/>
        <path id="Path_386" data-name="Path 386" d="M964.43,375.505h5.776c.1,0,.217.021.285-.028l1.095-.784,1.225,1.756c.123.176.3.13.427-.046l1.023-1.437.586-.9a.322.322,0,0,0-.2-.073.413.413,0,0,0-.384.14l-1.126,1.613-1.126-1.613a.372.372,0,0,0-.266-.14.452.452,0,0,0-.314.073l-1.344.963h-5.651c-.2,0-.24.116-.24.26S964.229,375.505,964.43,375.505Z" transform="translate(-492.485 -311.637)" fill="#fff"/>
      </g>
      <path id="Path_387" data-name="Path 387" d="M964.513,376.041h7.824c.13,0,.295.028.387-.038l1.483-1.062,1.66,2.378c.166.238.411.176.578-.062l1.386-1.946.794-1.213a.436.436,0,0,0-.274-.1.56.56,0,0,0-.52.19l-1.525,2.185-1.525-2.185a.5.5,0,0,0-.361-.19.612.612,0,0,0-.426.1l-1.821,1.3h-7.655c-.271,0-.325.157-.325.352S964.242,376.041,964.513,376.041Z" transform="translate(-403.837 86.676)" fill="#fff"/>
      <path id="Path_388" data-name="Path 388" d="M-.213-.383,294.445-.21" transform="translate(574.534 461.342)" fill="none" stroke="#fff" stroke-width="1.1"/>
    </g>
  </g>
</svg>
