<svg xmlns="http://www.w3.org/2000/svg" width="155" height="55.69" viewBox="0 0 155 55.69">
  <g id="Group_2727" data-name="Group 2727" transform="translate(-920 -197)">
    <text id="A" transform="translate(924 247.69)" fill="#fff" font-size="13" font-family="KohinoorBangla-Regular, Kohinoor Bangla"><tspan x="-3" y="0">A</tspan></text>
    <text id="Brand" transform="translate(1040 247.69)" fill="#fff" font-size="13" font-family="KohinoorBangla-Regular, Kohinoor Bangla"><tspan x="0" y="0">Brand</tspan></text>
    <g id="Group_2728" data-name="Group 2728" transform="translate(935.315 197)">
      <g id="Group_2706" data-name="Group 2706" transform="translate(0 0)">
        <path id="Path_326" data-name="Path 326" d="M335.818,553.967c0-2.273-4.775-1.758-4.775-4.918a2.844,2.844,0,0,1,3.1-2.688,4.049,4.049,0,0,1,2.588.844l-.7.886a3,3,0,0,0-1.959-.686c-1.172,0-1.873.658-1.873,1.573,0,2.316,4.775,1.83,4.775,4.918,0,1.515-1.2,2.773-3.346,2.773a4.64,4.64,0,0,1-3.131-1.058l.672-.915a3.873,3.873,0,0,0,2.559.944C335.089,555.64,335.818,554.9,335.818,553.967Z" transform="translate(-330.493 -505.288)" fill="#fff"/>
        <path id="Path_327" data-name="Path 327" d="M370.534,547.931h-2.673v-1.015h6.476v1.015h-2.659v9.007h-1.144Z" transform="translate(-358.229 -505.7)" fill="#fff"/>
        <path id="Path_328" data-name="Path 328" d="M406.411,546.916l3.245,10.022h-1.2l-.929-2.916h-4.032l-.929,2.916h-1.172l3.245-10.022Zm-2.588,6.09H407.2l-1.072-3.374c-.072-.286-.544-1.744-.586-1.93h-.057c-.029.172-.5,1.63-.572,1.9Z" transform="translate(-383.123 -505.7)" fill="#fff"/>
        <path id="Path_329" data-name="Path 329" d="M447.648,546.916c2.087,0,3.345.815,3.345,2.817a2.556,2.556,0,0,1-2.259,2.73v.057a2.855,2.855,0,0,1,1.215,1.287l1.844,3.131h-1.358l-1.816-3.2a1.645,1.645,0,0,0-1.558-.958h-.786v4.16h-1.143V546.916Zm-1.373,4.875h1.287c1.387,0,2.259-.544,2.259-1.93s-.815-1.93-2.33-1.93h-1.215Z" transform="translate(-415.595 -505.7)" fill="#fff"/>
        <g id="Group_2704" data-name="Group 2704" transform="translate(48.792)">
          <path id="Path_330" data-name="Path 330" d="M520.37,409.685h3.091c.2,0,.456.044.6-.058l2.295-1.644,2.568,3.68a.976.976,0,0,0,1.36,0l1.94-2.779,4.227,22.212a.839.839,0,0,0,1.5.006l8.333-39.8,3.843,20.189a.652.652,0,0,0,.561.454.947.947,0,0,0,.8-.2l4.128-3.943,3.962,1.892a.986.986,0,0,0,.422.091h7.78c.42,0,.76-.243.76-.544s-.34-.545-.76-.545h-7.55l-4.368-2.086a.968.968,0,0,0-1.03.126l-3.448,3.295-4.311-22.642a.709.709,0,0,0-.752-.471.723.723,0,0,0-.751.463l-8.333,39.8-3.843-20.19a.674.674,0,0,0-.628-.463.866.866,0,0,0-.8.293L529.6,410.2l-2.36-3.382a.779.779,0,0,0-.558-.293.947.947,0,0,0-.659.152l-2.818,2.018h-2.828c-.42,0-.5.243-.5.545S519.95,409.685,520.37,409.685Z" transform="translate(-519.876 -386.918)" fill="#fff"/>
        </g>
        <rect id="Rectangle_31" data-name="Rectangle 31" width="37.868" height="1.03" rx="0.515" transform="translate(0 34.798)" fill="#fff"/>
        <rect id="Rectangle_32" data-name="Rectangle 32" width="24.473" height="0.979" rx="0.489" transform="translate(26.67 21.789)" fill="#fff"/>
        <path id="Path_331" data-name="Path 331" d="M389.916,453.644l-2.915-1.3,2.963-1.321a1.618,1.618,0,0,0,.9-1.67h0a1.618,1.618,0,0,0-2.553-1.094l-2.583,1.875.338-3.227a1.618,1.618,0,0,0-1-1.612h0a1.618,1.618,0,0,0-2.224,1.664l.332,3.175-2.625-1.906a1.618,1.618,0,0,0-1.9.058h0a1.618,1.618,0,0,0,.329,2.758l2.916,1.3-2.963,1.321a1.618,1.618,0,0,0-.9,1.671h0a1.618,1.618,0,0,0,2.554,1.094l2.583-1.875-.338,3.227a1.618,1.618,0,0,0,1,1.612h0a1.618,1.618,0,0,0,2.224-1.664l-.332-3.175,2.625,1.906a1.618,1.618,0,0,0,1.9-.058h0A1.618,1.618,0,0,0,389.916,453.644Z" transform="translate(-365.772 -430.165)" fill="#fff"/>
        <g id="Group_2705" data-name="Group 2705" transform="translate(40.323 40.903)">
          <path id="Path_332" data-name="Path 332" d="M492.42,553.636c0-1.587-4.959-1.372-4.959-4.532,0-1.659,1.566-2.959,3.792-2.959a4.384,4.384,0,0,1,3.27,1.2l-1.459,1.615a2.559,2.559,0,0,0-2.011-.929c-.767,0-1.2.4-1.2.9,0,1.615,4.944,1.372,4.944,4.56,0,1.5-1.336,2.959-4.069,2.959A5.43,5.43,0,0,1,487,555.209l1.336-1.8a4.017,4.017,0,0,0,2.7,1.2C491.975,554.608,492.42,554.165,492.42,553.636Z" transform="translate(-487 -546.03)" fill="#fff"/>
          <path id="Path_333" data-name="Path 333" d="M536.285,556.722V546.7h6.372v1.8h-4.038v2.23h3.47v1.8h-3.47v2.388h4.222v1.8Z" transform="translate(-523.589 -546.442)" fill="#fff"/>
          <path id="Path_334" data-name="Path 334" d="M584.122,548.458c.107,1-.065,1.745-.065,3.475v3.788h-2.242V545.7h2.81l2.2,3.946a27.5,27.5,0,0,1,1.52,3.074h.061c-.123-1.4-.123-2.788-.123-3.846V545.7h2.226v10.022h-2.748l-2.365-4.232a27.587,27.587,0,0,1-1.428-3.059Z" transform="translate(-557.39 -545.7)" fill="#fff"/>
          <path id="Path_335" data-name="Path 335" d="M639.32,553.636c0-1.587-4.959-1.372-4.959-4.532,0-1.659,1.566-2.959,3.792-2.959a4.383,4.383,0,0,1,3.27,1.2l-1.458,1.615a2.558,2.558,0,0,0-2.011-.929c-.768,0-1.2.4-1.2.9,0,1.615,4.944,1.372,4.944,4.56,0,1.5-1.336,2.959-4.069,2.959a5.431,5.431,0,0,1-3.731-1.244l1.336-1.8a4.018,4.018,0,0,0,2.7,1.2C638.875,554.608,639.32,554.165,639.32,553.636Z" transform="translate(-596.058 -546.03)" fill="#fff"/>
          <path id="Path_336" data-name="Path 336" d="M683.186,556.722V546.7h6.371v1.8h-4.038v2.23h3.47v1.8h-3.47v2.388h4.222v1.8Z" transform="translate(-632.647 -546.442)" fill="#fff"/>
        </g>
      </g>
    </g>
  </g>
</svg>
